M48
INCH
T01C0.035
T02C0.0354
T03C0.04
%
T01
X+008190Y+007190
X+009190Y+007190
X+009190Y+010690
X+008190Y+010690
X+008190Y+014190
X+009190Y+014190
X+009190Y+017690
X+008190Y+017690
X+008190Y+021190
X+009190Y+021190
X+009190Y+024690
X+008190Y+024690
X+008190Y+027440
X+009190Y+027440
X+009190Y+030940
X+008190Y+030940
T02
X+016440Y+018940
X+016440Y+017940
X+016440Y+016940
X+016440Y+015940
X+016440Y+014940
X+016440Y+013940
X+016440Y+012940
X+016440Y+011940
X+016440Y+010940
X+016440Y+009940
X+019432Y+009940
X+019432Y+010940
X+019432Y+011940
X+019432Y+012940
X+019432Y+013940
X+019432Y+014940
X+019432Y+015940
X+019432Y+016940
X+019432Y+017940
X+019432Y+018940
T03
X+020690Y+031440
X+021690Y+031440
X+022690Y+031440
X+021440Y+029190
X+021440Y+028190
X+021440Y+027190
X+021440Y+025190
X+021440Y+024190
X+021440Y+023190
X+021440Y+021690
X+022440Y+021690
X+021440Y+014440
X+021440Y+013440
X+021440Y+012440
X+021440Y+011440
X+021440Y+010440
X+021440Y+009440
X+019440Y+006190
X+019440Y+005190
X+017940Y+005190
X+017940Y+006190
X+006440Y+007940
X+006440Y+008940
X+006440Y+009940
X+006440Y+014940
X+006440Y+015940
X+006440Y+016940
X+006440Y+021940
X+006440Y+022940
X+006440Y+023940
X+006440Y+028190
X+006440Y+029190
X+006440Y+030190
X+016690Y+031440
X+017690Y+031440
X+018690Y+031440
T00
M30
