G04 DipTrace 2.3.1.0*
%INBottomSilk.gbr*%
%MOIN*%
%ADD10C,0.0098*%
%ADD23C,0.0157*%
%ADD27C,0.0154*%
%ADD68C,0.0077*%
%ADD69C,0.0062*%
%FSLAX44Y44*%
G04*
G70*
G90*
G75*
G01*
%LNBotSilk*%
%LPD*%
X22847Y13564D2*
D10*
X22533D1*
X22755Y15505D2*
Y16214D1*
X22125Y15505D2*
Y16214D1*
D23*
X22440Y14816D3*
X21755Y15505D2*
D10*
Y16214D1*
X21125Y15505D2*
Y16214D1*
D23*
X21440Y14816D3*
D27*
X11087Y7998D3*
X10586Y7906D2*
D10*
Y6725D1*
X10389D1*
Y7906D1*
X10586D1*
D27*
X11087Y14998D3*
X10586Y14906D2*
D10*
Y13725D1*
X10389D1*
Y14906D1*
X10586D1*
D27*
X11087Y11498D3*
X10586Y11406D2*
D10*
Y10225D1*
X10389D1*
Y11406D1*
X10586D1*
D27*
X11087Y18498D3*
X10586Y18406D2*
D10*
Y17225D1*
X10389D1*
Y18406D1*
X10586D1*
D27*
X11087Y28248D3*
X10586Y28156D2*
D10*
Y26975D1*
X10389D1*
Y28156D1*
X10586D1*
D27*
X11087Y31748D3*
X10586Y31656D2*
D10*
Y30475D1*
X10389D1*
Y31656D1*
X10586D1*
D27*
X11087Y21998D3*
X10586Y21906D2*
D10*
Y20725D1*
X10389D1*
Y21906D1*
X10586D1*
D27*
X11087Y25498D3*
X10586Y25406D2*
D10*
Y24225D1*
X10389D1*
Y25406D1*
X10586D1*
X23130Y18131D2*
D68*
X23083Y18155D1*
X23035Y18203D1*
X23011Y18250D1*
Y18346D1*
X23035Y18394D1*
X23083Y18442D1*
X23130Y18466D1*
X23202Y18490D1*
X23322D1*
X23393Y18466D1*
X23441Y18442D1*
X23489Y18394D1*
X23513Y18346D1*
Y18250D1*
X23489Y18203D1*
X23441Y18155D1*
X23393Y18131D1*
X23107Y17977D2*
X23083Y17929D1*
X23011Y17857D1*
X23513D1*
X23011Y17559D2*
X23035Y17630D1*
X23107Y17678D1*
X23226Y17702D1*
X23298D1*
X23418Y17678D1*
X23490Y17630D1*
X23513Y17559D1*
Y17511D1*
X23490Y17439D1*
X23418Y17392D1*
X23298Y17367D1*
X23226D1*
X23107Y17392D1*
X23035Y17439D1*
X23011Y17511D1*
Y17559D1*
X23107Y17392D2*
X23418Y17678D1*
X23011Y16926D2*
Y17165D1*
X23226Y17189D1*
X23203Y17165D1*
X23178Y17093D1*
Y17022D1*
X23203Y16950D1*
X23250Y16902D1*
X23322Y16878D1*
X23370D1*
X23441Y16902D1*
X23490Y16950D1*
X23513Y17022D1*
Y17093D1*
X23490Y17165D1*
X23465Y17189D1*
X23418Y17213D1*
X21893Y19148D2*
X22395D1*
Y18981D1*
X22371Y18909D1*
X22323Y18861D1*
X22275Y18837D1*
X22204Y18813D1*
X22084D1*
X22012Y18837D1*
X21965Y18861D1*
X21917Y18909D1*
X21893Y18981D1*
Y19148D1*
X21989Y18659D2*
X21965Y18611D1*
X21893Y18539D1*
X22395D1*
X21893Y18241D2*
X21917Y18313D1*
X21989Y18361D1*
X22108Y18384D1*
X22180D1*
X22300Y18361D1*
X22371Y18313D1*
X22395Y18241D1*
Y18193D1*
X22371Y18121D1*
X22300Y18074D1*
X22180Y18050D1*
X22108D1*
X21989Y18074D1*
X21917Y18121D1*
X21893Y18193D1*
Y18241D1*
X21989Y18074D2*
X22300Y18361D1*
X21989Y17895D2*
X21965Y17847D1*
X21893Y17775D1*
X22395D1*
X21143Y19256D2*
X21645D1*
Y19088D1*
X21621Y19016D1*
X21573Y18968D1*
X21525Y18944D1*
X21454Y18921D1*
X21334D1*
X21262Y18944D1*
X21215Y18968D1*
X21167Y19016D1*
X21143Y19088D1*
Y19256D1*
X21239Y18766D2*
X21215Y18718D1*
X21143Y18646D1*
X21645D1*
X21143Y18348D2*
X21167Y18420D1*
X21239Y18468D1*
X21358Y18492D1*
X21430D1*
X21550Y18468D1*
X21621Y18420D1*
X21645Y18348D1*
Y18301D1*
X21621Y18229D1*
X21550Y18181D1*
X21430Y18157D1*
X21358D1*
X21239Y18181D1*
X21167Y18229D1*
X21143Y18301D1*
Y18348D1*
X21239Y18181D2*
X21550Y18468D1*
X21263Y17978D2*
X21239D1*
X21191Y17955D1*
X21167Y17931D1*
X21143Y17883D1*
Y17787D1*
X21167Y17740D1*
X21191Y17716D1*
X21239Y17691D1*
X21287D1*
X21335Y17716D1*
X21406Y17763D1*
X21645Y18003D1*
Y17668D1*
X13096Y8075D2*
X13119Y8122D1*
X13167Y8170D1*
X13215Y8194D1*
X13287Y8218D1*
X13406D1*
X13478Y8194D1*
X13526Y8170D1*
X13574Y8122D1*
X13597Y8075D1*
Y7979D1*
X13574Y7931D1*
X13526Y7884D1*
X13478Y7860D1*
X13406Y7835D1*
X13287D1*
X13215Y7860D1*
X13167Y7884D1*
X13119Y7931D1*
X13096Y7979D1*
Y8075D1*
X13502Y8003D2*
X13645Y7860D1*
X13096Y7633D2*
Y7370D1*
X13287Y7514D1*
Y7442D1*
X13311Y7394D1*
X13335Y7370D1*
X13407Y7346D1*
X13454D1*
X13526Y7370D1*
X13574Y7418D1*
X13598Y7490D1*
Y7562D1*
X13574Y7633D1*
X13550Y7657D1*
X13502Y7681D1*
X13096Y7048D2*
X13120Y7120D1*
X13192Y7168D1*
X13311Y7192D1*
X13383D1*
X13502Y7168D1*
X13574Y7120D1*
X13598Y7048D1*
Y7001D1*
X13574Y6929D1*
X13502Y6881D1*
X13383Y6857D1*
X13311D1*
X13192Y6881D1*
X13120Y6929D1*
X13096Y7001D1*
Y7048D1*
X13192Y6881D2*
X13502Y7168D1*
X13192Y6702D2*
X13167Y6654D1*
X13096Y6582D1*
X13598D1*
X13096Y15182D2*
X13119Y15230D1*
X13167Y15278D1*
X13215Y15302D1*
X13287Y15326D1*
X13406D1*
X13478Y15302D1*
X13526Y15278D1*
X13574Y15230D1*
X13597Y15182D1*
Y15087D1*
X13574Y15039D1*
X13526Y14991D1*
X13478Y14967D1*
X13406Y14943D1*
X13287D1*
X13215Y14967D1*
X13167Y14991D1*
X13119Y15039D1*
X13096Y15087D1*
Y15182D1*
X13502Y15110D2*
X13645Y14967D1*
X13096Y14740D2*
Y14478D1*
X13287Y14621D1*
Y14549D1*
X13311Y14502D1*
X13335Y14478D1*
X13407Y14454D1*
X13454D1*
X13526Y14478D1*
X13574Y14525D1*
X13598Y14597D1*
Y14669D1*
X13574Y14740D1*
X13550Y14764D1*
X13502Y14789D1*
X13096Y14156D2*
X13120Y14227D1*
X13192Y14275D1*
X13311Y14299D1*
X13383D1*
X13502Y14275D1*
X13574Y14227D1*
X13598Y14156D1*
Y14108D1*
X13574Y14036D1*
X13502Y13989D1*
X13383Y13964D1*
X13311D1*
X13192Y13989D1*
X13120Y14036D1*
X13096Y14108D1*
Y14156D1*
X13192Y13989D2*
X13502Y14275D1*
X13215Y13786D2*
X13192D1*
X13144Y13762D1*
X13120Y13738D1*
X13096Y13690D1*
Y13594D1*
X13120Y13547D1*
X13144Y13523D1*
X13192Y13499D1*
X13239D1*
X13287Y13523D1*
X13359Y13571D1*
X13598Y13810D1*
Y13475D1*
X13096Y11682D2*
X13119Y11730D1*
X13167Y11778D1*
X13215Y11802D1*
X13287Y11826D1*
X13406D1*
X13478Y11802D1*
X13526Y11778D1*
X13574Y11730D1*
X13597Y11682D1*
Y11587D1*
X13574Y11539D1*
X13526Y11491D1*
X13478Y11467D1*
X13406Y11443D1*
X13287D1*
X13215Y11467D1*
X13167Y11491D1*
X13119Y11539D1*
X13096Y11587D1*
Y11682D1*
X13502Y11610D2*
X13645Y11467D1*
X13096Y11240D2*
Y10978D1*
X13287Y11121D1*
Y11049D1*
X13311Y11002D1*
X13335Y10978D1*
X13407Y10954D1*
X13454D1*
X13526Y10978D1*
X13574Y11025D1*
X13598Y11097D1*
Y11169D1*
X13574Y11240D1*
X13550Y11264D1*
X13502Y11289D1*
X13096Y10656D2*
X13120Y10727D1*
X13192Y10775D1*
X13311Y10799D1*
X13383D1*
X13502Y10775D1*
X13574Y10727D1*
X13598Y10656D1*
Y10608D1*
X13574Y10536D1*
X13502Y10489D1*
X13383Y10464D1*
X13311D1*
X13192Y10489D1*
X13120Y10536D1*
X13096Y10608D1*
Y10656D1*
X13192Y10489D2*
X13502Y10775D1*
X13096Y10262D2*
Y9999D1*
X13287Y10142D1*
Y10071D1*
X13311Y10023D1*
X13335Y9999D1*
X13407Y9975D1*
X13454D1*
X13526Y9999D1*
X13574Y10047D1*
X13598Y10119D1*
Y10191D1*
X13574Y10262D1*
X13550Y10286D1*
X13502Y10310D1*
X13096Y18694D2*
X13119Y18742D1*
X13167Y18790D1*
X13215Y18814D1*
X13287Y18838D1*
X13406D1*
X13478Y18814D1*
X13526Y18790D1*
X13574Y18742D1*
X13597Y18694D1*
Y18599D1*
X13574Y18550D1*
X13526Y18503D1*
X13478Y18479D1*
X13406Y18455D1*
X13287D1*
X13215Y18479D1*
X13167Y18503D1*
X13119Y18550D1*
X13096Y18599D1*
Y18694D1*
X13502Y18622D2*
X13645Y18479D1*
X13096Y18252D2*
Y17990D1*
X13287Y18133D1*
Y18061D1*
X13311Y18014D1*
X13335Y17990D1*
X13407Y17966D1*
X13454D1*
X13526Y17990D1*
X13574Y18037D1*
X13598Y18109D1*
Y18181D1*
X13574Y18252D1*
X13550Y18276D1*
X13502Y18300D1*
X13096Y17667D2*
X13120Y17739D1*
X13192Y17787D1*
X13311Y17811D1*
X13383D1*
X13502Y17787D1*
X13574Y17739D1*
X13598Y17667D1*
Y17620D1*
X13574Y17548D1*
X13502Y17501D1*
X13383Y17476D1*
X13311D1*
X13192Y17501D1*
X13120Y17548D1*
X13096Y17620D1*
Y17667D1*
X13192Y17501D2*
X13502Y17787D1*
X13598Y17082D2*
X13096D1*
X13430Y17322D1*
Y16963D1*
X13096Y28432D2*
X13119Y28480D1*
X13167Y28528D1*
X13215Y28552D1*
X13287Y28576D1*
X13406D1*
X13478Y28552D1*
X13526Y28528D1*
X13574Y28480D1*
X13597Y28432D1*
Y28337D1*
X13574Y28289D1*
X13526Y28241D1*
X13478Y28217D1*
X13406Y28193D1*
X13287D1*
X13215Y28217D1*
X13167Y28241D1*
X13119Y28289D1*
X13096Y28337D1*
Y28432D1*
X13502Y28360D2*
X13645Y28217D1*
X13096Y27990D2*
Y27728D1*
X13287Y27871D1*
Y27799D1*
X13311Y27752D1*
X13335Y27728D1*
X13407Y27704D1*
X13454D1*
X13526Y27728D1*
X13574Y27775D1*
X13598Y27847D1*
Y27919D1*
X13574Y27990D1*
X13550Y28014D1*
X13502Y28039D1*
X13096Y27406D2*
X13120Y27477D1*
X13192Y27525D1*
X13311Y27549D1*
X13383D1*
X13502Y27525D1*
X13574Y27477D1*
X13598Y27406D1*
Y27358D1*
X13574Y27286D1*
X13502Y27239D1*
X13383Y27214D1*
X13311D1*
X13192Y27239D1*
X13120Y27286D1*
X13096Y27358D1*
Y27406D1*
X13192Y27239D2*
X13502Y27525D1*
X13096Y26773D2*
Y27012D1*
X13311Y27036D1*
X13287Y27012D1*
X13263Y26940D1*
Y26869D1*
X13287Y26797D1*
X13335Y26749D1*
X13407Y26725D1*
X13454D1*
X13526Y26749D1*
X13574Y26797D1*
X13598Y26869D1*
Y26940D1*
X13574Y27012D1*
X13550Y27036D1*
X13502Y27060D1*
X13096Y31920D2*
X13119Y31968D1*
X13167Y32016D1*
X13215Y32039D1*
X13287Y32064D1*
X13406D1*
X13478Y32039D1*
X13526Y32016D1*
X13574Y31968D1*
X13597Y31920D1*
Y31824D1*
X13574Y31776D1*
X13526Y31729D1*
X13478Y31705D1*
X13406Y31681D1*
X13287D1*
X13215Y31705D1*
X13167Y31729D1*
X13119Y31776D1*
X13096Y31824D1*
Y31920D1*
X13502Y31848D2*
X13645Y31705D1*
X13096Y31478D2*
Y31216D1*
X13287Y31359D1*
Y31287D1*
X13311Y31240D1*
X13335Y31216D1*
X13407Y31191D1*
X13454D1*
X13526Y31216D1*
X13574Y31263D1*
X13598Y31335D1*
Y31407D1*
X13574Y31478D1*
X13550Y31502D1*
X13502Y31526D1*
X13096Y30893D2*
X13120Y30965D1*
X13192Y31013D1*
X13311Y31037D1*
X13383D1*
X13502Y31013D1*
X13574Y30965D1*
X13598Y30893D1*
Y30846D1*
X13574Y30774D1*
X13502Y30726D1*
X13383Y30702D1*
X13311D1*
X13192Y30726D1*
X13120Y30774D1*
X13096Y30846D1*
Y30893D1*
X13192Y30726D2*
X13502Y31013D1*
X13167Y30261D2*
X13120Y30285D1*
X13096Y30357D1*
Y30404D1*
X13120Y30476D1*
X13192Y30524D1*
X13311Y30548D1*
X13430D1*
X13526Y30524D1*
X13574Y30476D1*
X13598Y30404D1*
Y30380D1*
X13574Y30309D1*
X13526Y30261D1*
X13454Y30237D1*
X13430D1*
X13359Y30261D1*
X13311Y30309D1*
X13287Y30380D1*
Y30404D1*
X13311Y30476D1*
X13359Y30524D1*
X13430Y30548D1*
X13096Y22182D2*
X13119Y22230D1*
X13167Y22278D1*
X13215Y22302D1*
X13287Y22326D1*
X13406D1*
X13478Y22302D1*
X13526Y22278D1*
X13574Y22230D1*
X13597Y22182D1*
Y22087D1*
X13574Y22039D1*
X13526Y21991D1*
X13478Y21967D1*
X13406Y21943D1*
X13287D1*
X13215Y21967D1*
X13167Y21991D1*
X13119Y22039D1*
X13096Y22087D1*
Y22182D1*
X13502Y22110D2*
X13645Y21967D1*
X13096Y21740D2*
Y21478D1*
X13287Y21621D1*
Y21549D1*
X13311Y21502D1*
X13335Y21478D1*
X13407Y21454D1*
X13454D1*
X13526Y21478D1*
X13574Y21525D1*
X13598Y21597D1*
Y21669D1*
X13574Y21740D1*
X13550Y21764D1*
X13502Y21789D1*
X13096Y21156D2*
X13120Y21227D1*
X13192Y21275D1*
X13311Y21299D1*
X13383D1*
X13502Y21275D1*
X13574Y21227D1*
X13598Y21156D1*
Y21108D1*
X13574Y21036D1*
X13502Y20989D1*
X13383Y20964D1*
X13311D1*
X13192Y20989D1*
X13120Y21036D1*
X13096Y21108D1*
Y21156D1*
X13192Y20989D2*
X13502Y21275D1*
X13598Y20714D2*
X13096Y20475D1*
Y20810D1*
Y25682D2*
X13119Y25730D1*
X13167Y25778D1*
X13215Y25801D1*
X13287Y25826D1*
X13406D1*
X13478Y25801D1*
X13526Y25778D1*
X13574Y25730D1*
X13597Y25682D1*
Y25586D1*
X13574Y25538D1*
X13526Y25491D1*
X13478Y25467D1*
X13406Y25443D1*
X13287D1*
X13215Y25467D1*
X13167Y25491D1*
X13119Y25538D1*
X13096Y25586D1*
Y25682D1*
X13502Y25610D2*
X13645Y25467D1*
X13096Y25240D2*
Y24978D1*
X13287Y25121D1*
Y25049D1*
X13311Y25001D1*
X13335Y24978D1*
X13407Y24953D1*
X13454D1*
X13526Y24978D1*
X13574Y25025D1*
X13598Y25097D1*
Y25169D1*
X13574Y25240D1*
X13550Y25264D1*
X13502Y25288D1*
X13096Y24655D2*
X13120Y24727D1*
X13192Y24775D1*
X13311Y24799D1*
X13383D1*
X13502Y24775D1*
X13574Y24727D1*
X13598Y24655D1*
Y24608D1*
X13574Y24536D1*
X13502Y24488D1*
X13383Y24464D1*
X13311D1*
X13192Y24488D1*
X13120Y24536D1*
X13096Y24608D1*
Y24655D1*
X13192Y24488D2*
X13502Y24775D1*
X13096Y24190D2*
X13120Y24262D1*
X13167Y24286D1*
X13215D1*
X13263Y24262D1*
X13287Y24214D1*
X13311Y24118D1*
X13335Y24047D1*
X13383Y23999D1*
X13430Y23975D1*
X13502D1*
X13550Y23999D1*
X13574Y24023D1*
X13598Y24095D1*
Y24190D1*
X13574Y24262D1*
X13550Y24286D1*
X13502Y24310D1*
X13430D1*
X13383Y24286D1*
X13335Y24238D1*
X13311Y24166D1*
X13287Y24071D1*
X13263Y24023D1*
X13215Y23999D1*
X13167D1*
X13120Y24023D1*
X13096Y24095D1*
Y24190D1*
X22569Y19880D2*
X22354D1*
X22282Y19904D1*
X22257Y19928D1*
X22234Y19975D1*
Y20023D1*
X22257Y20071D1*
X22282Y20095D1*
X22354Y20119D1*
X22569D1*
Y19617D1*
X22401Y19880D2*
X22234Y19617D1*
X22079Y20023D2*
X22031Y20047D1*
X21959Y20119D1*
Y19617D1*
X21661Y20119D2*
X21733Y20095D1*
X21781Y20023D1*
X21805Y19904D1*
Y19832D1*
X21781Y19712D1*
X21733Y19640D1*
X21661Y19617D1*
X21614D1*
X21542Y19640D1*
X21494Y19712D1*
X21470Y19832D1*
Y19904D1*
X21494Y20023D1*
X21542Y20095D1*
X21614Y20119D1*
X21661D1*
X21494Y20023D2*
X21781Y19712D1*
X21268Y20119D2*
X21005D1*
X21148Y19927D1*
X21076D1*
X21029Y19904D1*
X21005Y19880D1*
X20981Y19808D1*
Y19760D1*
X21005Y19689D1*
X21053Y19640D1*
X21124Y19617D1*
X21196D1*
X21268Y19640D1*
X21291Y19665D1*
X21316Y19712D1*
X10399Y5630D2*
X10184D1*
X10112Y5654D1*
X10088Y5678D1*
X10064Y5725D1*
Y5773D1*
X10088Y5821D1*
X10112Y5845D1*
X10184Y5869D1*
X10399D1*
Y5367D1*
X10232Y5630D2*
X10064Y5367D1*
X9862Y5869D2*
X9599D1*
X9743Y5677D1*
X9671D1*
X9623Y5654D1*
X9599Y5630D1*
X9575Y5558D1*
Y5510D1*
X9599Y5439D1*
X9647Y5390D1*
X9719Y5367D1*
X9791D1*
X9862Y5390D1*
X9886Y5415D1*
X9910Y5462D1*
X9277Y5869D2*
X9349Y5845D1*
X9397Y5773D1*
X9421Y5654D1*
Y5582D1*
X9397Y5462D1*
X9349Y5390D1*
X9277Y5367D1*
X9229D1*
X9158Y5390D1*
X9110Y5462D1*
X9086Y5582D1*
Y5654D1*
X9110Y5773D1*
X9158Y5845D1*
X9229Y5869D1*
X9277D1*
X9110Y5773D2*
X9397Y5462D1*
X8931Y5773D2*
X8883Y5797D1*
X8811Y5869D1*
Y5367D1*
X10507Y12630D2*
X10292D1*
X10220Y12654D1*
X10196Y12678D1*
X10172Y12725D1*
Y12773D1*
X10196Y12821D1*
X10220Y12845D1*
X10292Y12869D1*
X10507D1*
Y12367D1*
X10339Y12630D2*
X10172Y12367D1*
X9969Y12869D2*
X9707D1*
X9850Y12677D1*
X9778D1*
X9731Y12654D1*
X9707Y12630D1*
X9683Y12558D1*
Y12510D1*
X9707Y12439D1*
X9754Y12390D1*
X9826Y12367D1*
X9898D1*
X9969Y12390D1*
X9993Y12415D1*
X10017Y12462D1*
X9384Y12869D2*
X9456Y12845D1*
X9504Y12773D1*
X9528Y12654D1*
Y12582D1*
X9504Y12462D1*
X9456Y12390D1*
X9384Y12367D1*
X9337D1*
X9265Y12390D1*
X9218Y12462D1*
X9193Y12582D1*
Y12654D1*
X9218Y12773D1*
X9265Y12845D1*
X9337Y12869D1*
X9384D1*
X9218Y12773D2*
X9504Y12462D1*
X9015Y12749D2*
Y12773D1*
X8991Y12821D1*
X8967Y12845D1*
X8919Y12869D1*
X8823D1*
X8776Y12845D1*
X8752Y12821D1*
X8728Y12773D1*
Y12725D1*
X8752Y12677D1*
X8800Y12606D1*
X9039Y12367D1*
X8704D1*
X10507Y9130D2*
X10292D1*
X10220Y9154D1*
X10196Y9178D1*
X10172Y9225D1*
Y9273D1*
X10196Y9321D1*
X10220Y9345D1*
X10292Y9369D1*
X10507D1*
Y8867D1*
X10339Y9130D2*
X10172Y8867D1*
X9969Y9369D2*
X9707D1*
X9850Y9177D1*
X9778D1*
X9731Y9154D1*
X9707Y9130D1*
X9683Y9058D1*
Y9010D1*
X9707Y8939D1*
X9754Y8890D1*
X9826Y8867D1*
X9898D1*
X9969Y8890D1*
X9993Y8915D1*
X10017Y8962D1*
X9384Y9369D2*
X9456Y9345D1*
X9504Y9273D1*
X9528Y9154D1*
Y9082D1*
X9504Y8962D1*
X9456Y8890D1*
X9384Y8867D1*
X9337D1*
X9265Y8890D1*
X9218Y8962D1*
X9193Y9082D1*
Y9154D1*
X9218Y9273D1*
X9265Y9345D1*
X9337Y9369D1*
X9384D1*
X9218Y9273D2*
X9504Y8962D1*
X8991Y9369D2*
X8728D1*
X8871Y9177D1*
X8800D1*
X8752Y9154D1*
X8728Y9130D1*
X8704Y9058D1*
Y9010D1*
X8728Y8939D1*
X8776Y8890D1*
X8848Y8867D1*
X8919D1*
X8991Y8890D1*
X9015Y8915D1*
X9039Y8962D1*
X10519Y16130D2*
X10304D1*
X10232Y16154D1*
X10208Y16178D1*
X10184Y16225D1*
Y16273D1*
X10208Y16321D1*
X10232Y16345D1*
X10304Y16369D1*
X10519D1*
Y15867D1*
X10351Y16130D2*
X10184Y15867D1*
X9981Y16369D2*
X9719D1*
X9862Y16177D1*
X9790D1*
X9743Y16154D1*
X9719Y16130D1*
X9694Y16058D1*
Y16010D1*
X9719Y15939D1*
X9766Y15890D1*
X9838Y15867D1*
X9910D1*
X9981Y15890D1*
X10005Y15915D1*
X10029Y15962D1*
X9396Y16369D2*
X9468Y16345D1*
X9516Y16273D1*
X9540Y16154D1*
Y16082D1*
X9516Y15962D1*
X9468Y15890D1*
X9396Y15867D1*
X9349D1*
X9277Y15890D1*
X9229Y15962D1*
X9205Y16082D1*
Y16154D1*
X9229Y16273D1*
X9277Y16345D1*
X9349Y16369D1*
X9396D1*
X9229Y16273D2*
X9516Y15962D1*
X8811Y15867D2*
Y16369D1*
X9051Y16034D1*
X8692D1*
X15000Y8176D2*
Y7961D1*
X14976Y7889D1*
X14952Y7865D1*
X14905Y7841D1*
X14857D1*
X14809Y7865D1*
X14785Y7889D1*
X14761Y7961D1*
Y8176D1*
X15263D1*
X15000Y8009D2*
X15263Y7841D1*
X14761Y7639D2*
Y7376D1*
X14953Y7519D1*
Y7447D1*
X14976Y7400D1*
X15000Y7376D1*
X15072Y7352D1*
X15120D1*
X15191Y7376D1*
X15240Y7424D1*
X15263Y7496D1*
Y7567D1*
X15240Y7639D1*
X15215Y7662D1*
X15168Y7687D1*
X14761Y7054D2*
X14785Y7126D1*
X14857Y7174D1*
X14976Y7197D1*
X15048D1*
X15168Y7174D1*
X15240Y7126D1*
X15263Y7054D1*
Y7006D1*
X15240Y6934D1*
X15168Y6887D1*
X15048Y6863D1*
X14976D1*
X14857Y6887D1*
X14785Y6934D1*
X14761Y7006D1*
Y7054D1*
X14857Y6887D2*
X15168Y7174D1*
X14761Y6421D2*
Y6660D1*
X14976Y6684D1*
X14953Y6660D1*
X14928Y6588D1*
Y6517D1*
X14953Y6445D1*
X15000Y6397D1*
X15072Y6373D1*
X15120D1*
X15191Y6397D1*
X15240Y6445D1*
X15263Y6517D1*
Y6588D1*
X15240Y6660D1*
X15215Y6684D1*
X15168Y6708D1*
X15000Y15164D2*
Y14949D1*
X14976Y14877D1*
X14952Y14853D1*
X14905Y14829D1*
X14857D1*
X14809Y14853D1*
X14785Y14877D1*
X14761Y14949D1*
Y15164D1*
X15263D1*
X15000Y14996D2*
X15263Y14829D1*
X14761Y14627D2*
Y14364D1*
X14953Y14507D1*
Y14435D1*
X14976Y14388D1*
X15000Y14364D1*
X15072Y14340D1*
X15120D1*
X15191Y14364D1*
X15240Y14412D1*
X15263Y14483D1*
Y14555D1*
X15240Y14627D1*
X15215Y14650D1*
X15168Y14675D1*
X14761Y14042D2*
X14785Y14113D1*
X14857Y14162D1*
X14976Y14185D1*
X15048D1*
X15168Y14162D1*
X15240Y14113D1*
X15263Y14042D1*
Y13994D1*
X15240Y13922D1*
X15168Y13875D1*
X15048Y13850D1*
X14976D1*
X14857Y13875D1*
X14785Y13922D1*
X14761Y13994D1*
Y14042D1*
X14857Y13875D2*
X15168Y14162D1*
X14833Y13409D2*
X14785Y13433D1*
X14761Y13505D1*
Y13552D1*
X14785Y13624D1*
X14857Y13672D1*
X14976Y13696D1*
X15096D1*
X15191Y13672D1*
X15240Y13624D1*
X15263Y13552D1*
Y13528D1*
X15240Y13457D1*
X15191Y13409D1*
X15120Y13385D1*
X15096D1*
X15024Y13409D1*
X14976Y13457D1*
X14953Y13528D1*
Y13552D1*
X14976Y13624D1*
X15024Y13672D1*
X15096Y13696D1*
X15000Y11676D2*
Y11461D1*
X14976Y11389D1*
X14952Y11365D1*
X14905Y11341D1*
X14857D1*
X14809Y11365D1*
X14785Y11389D1*
X14761Y11461D1*
Y11676D1*
X15263D1*
X15000Y11509D2*
X15263Y11341D1*
X14761Y11139D2*
Y10876D1*
X14953Y11019D1*
Y10947D1*
X14976Y10900D1*
X15000Y10876D1*
X15072Y10852D1*
X15120D1*
X15191Y10876D1*
X15240Y10924D1*
X15263Y10996D1*
Y11067D1*
X15240Y11139D1*
X15215Y11162D1*
X15168Y11187D1*
X14761Y10554D2*
X14785Y10626D1*
X14857Y10674D1*
X14976Y10697D1*
X15048D1*
X15168Y10674D1*
X15240Y10626D1*
X15263Y10554D1*
Y10506D1*
X15240Y10434D1*
X15168Y10387D1*
X15048Y10363D1*
X14976D1*
X14857Y10387D1*
X14785Y10434D1*
X14761Y10506D1*
Y10554D1*
X14857Y10387D2*
X15168Y10674D1*
X15263Y10113D2*
X14761Y9873D1*
Y10208D1*
X15000Y18676D2*
Y18461D1*
X14976Y18389D1*
X14952Y18365D1*
X14905Y18341D1*
X14857D1*
X14809Y18365D1*
X14785Y18389D1*
X14761Y18461D1*
Y18676D1*
X15263D1*
X15000Y18508D2*
X15263Y18341D1*
X14761Y18138D2*
Y17876D1*
X14953Y18019D1*
Y17947D1*
X14976Y17900D1*
X15000Y17876D1*
X15072Y17852D1*
X15120D1*
X15191Y17876D1*
X15240Y17923D1*
X15263Y17995D1*
Y18067D1*
X15240Y18138D1*
X15215Y18162D1*
X15168Y18186D1*
X14761Y17553D2*
X14785Y17625D1*
X14857Y17673D1*
X14976Y17697D1*
X15048D1*
X15168Y17673D1*
X15240Y17625D1*
X15263Y17553D1*
Y17506D1*
X15240Y17434D1*
X15168Y17387D1*
X15048Y17362D1*
X14976D1*
X14857Y17387D1*
X14785Y17434D1*
X14761Y17506D1*
Y17553D1*
X14857Y17387D2*
X15168Y17673D1*
X14761Y17088D2*
X14785Y17160D1*
X14833Y17184D1*
X14881D1*
X14928Y17160D1*
X14953Y17112D1*
X14976Y17017D1*
X15000Y16945D1*
X15048Y16897D1*
X15096Y16873D1*
X15168D1*
X15215Y16897D1*
X15240Y16921D1*
X15263Y16993D1*
Y17088D1*
X15240Y17160D1*
X15215Y17184D1*
X15168Y17208D1*
X15096D1*
X15048Y17184D1*
X15000Y17136D1*
X14976Y17065D1*
X14953Y16969D1*
X14928Y16921D1*
X14881Y16897D1*
X14833D1*
X14785Y16921D1*
X14761Y16993D1*
Y17088D1*
X14250Y8164D2*
Y7949D1*
X14226Y7877D1*
X14202Y7853D1*
X14155Y7829D1*
X14107D1*
X14059Y7853D1*
X14035Y7877D1*
X14011Y7949D1*
Y8164D1*
X14513D1*
X14250Y7997D2*
X14513Y7829D1*
X14011Y7627D2*
Y7364D1*
X14203Y7507D1*
Y7436D1*
X14226Y7388D1*
X14250Y7364D1*
X14322Y7340D1*
X14370D1*
X14441Y7364D1*
X14490Y7412D1*
X14513Y7484D1*
Y7556D1*
X14490Y7627D1*
X14465Y7651D1*
X14418Y7675D1*
X14011Y7042D2*
X14035Y7114D1*
X14107Y7162D1*
X14226Y7186D1*
X14298D1*
X14418Y7162D1*
X14490Y7114D1*
X14513Y7042D1*
Y6994D1*
X14490Y6922D1*
X14418Y6875D1*
X14298Y6851D1*
X14226D1*
X14107Y6875D1*
X14035Y6922D1*
X14011Y6994D1*
Y7042D1*
X14107Y6875D2*
X14418Y7162D1*
X14178Y6385D2*
X14250Y6409D1*
X14298Y6457D1*
X14322Y6529D1*
Y6553D1*
X14298Y6624D1*
X14250Y6672D1*
X14178Y6696D1*
X14155D1*
X14083Y6672D1*
X14035Y6624D1*
X14011Y6553D1*
Y6529D1*
X14035Y6457D1*
X14083Y6409D1*
X14178Y6385D1*
X14298D1*
X14418Y6409D1*
X14490Y6457D1*
X14513Y6529D1*
Y6576D1*
X14490Y6648D1*
X14441Y6672D1*
X14250Y15069D2*
Y14854D1*
X14226Y14782D1*
X14202Y14757D1*
X14155Y14734D1*
X14107D1*
X14059Y14757D1*
X14035Y14782D1*
X14011Y14854D1*
Y15069D1*
X14513D1*
X14250Y14901D2*
X14513Y14734D1*
X14011Y14531D2*
Y14269D1*
X14203Y14412D1*
Y14340D1*
X14226Y14292D1*
X14250Y14269D1*
X14322Y14244D1*
X14370D1*
X14441Y14269D1*
X14490Y14316D1*
X14513Y14388D1*
Y14460D1*
X14490Y14531D1*
X14465Y14555D1*
X14418Y14579D1*
X14107Y14090D2*
X14083Y14042D1*
X14011Y13970D1*
X14513D1*
X14011Y13672D2*
X14035Y13744D1*
X14107Y13792D1*
X14226Y13816D1*
X14298D1*
X14418Y13792D1*
X14490Y13744D1*
X14513Y13672D1*
Y13624D1*
X14490Y13553D1*
X14418Y13505D1*
X14298Y13481D1*
X14226D1*
X14107Y13505D1*
X14035Y13553D1*
X14011Y13624D1*
Y13672D1*
X14107Y13505D2*
X14418Y13792D1*
X14250Y11461D2*
Y11246D1*
X14226Y11174D1*
X14202Y11150D1*
X14155Y11126D1*
X14107D1*
X14059Y11150D1*
X14035Y11174D1*
X14011Y11246D1*
Y11461D1*
X14513D1*
X14250Y11294D2*
X14513Y11126D1*
X14011Y10924D2*
Y10661D1*
X14203Y10804D1*
Y10732D1*
X14226Y10685D1*
X14250Y10661D1*
X14322Y10637D1*
X14370D1*
X14441Y10661D1*
X14490Y10709D1*
X14513Y10781D1*
Y10852D1*
X14490Y10924D1*
X14465Y10947D1*
X14418Y10972D1*
X14107Y10482D2*
X14083Y10434D1*
X14011Y10363D1*
X14513D1*
X14107Y10208D2*
X14083Y10160D1*
X14011Y10088D1*
X14513D1*
X14250Y18569D2*
Y18354D1*
X14226Y18282D1*
X14202Y18257D1*
X14155Y18234D1*
X14107D1*
X14059Y18257D1*
X14035Y18282D1*
X14011Y18354D1*
Y18569D1*
X14513D1*
X14250Y18401D2*
X14513Y18234D1*
X14011Y18031D2*
Y17769D1*
X14203Y17912D1*
Y17840D1*
X14226Y17792D1*
X14250Y17769D1*
X14322Y17744D1*
X14370D1*
X14441Y17769D1*
X14490Y17816D1*
X14513Y17888D1*
Y17960D1*
X14490Y18031D1*
X14465Y18055D1*
X14418Y18079D1*
X14107Y17590D2*
X14083Y17542D1*
X14011Y17470D1*
X14513D1*
X14131Y17291D2*
X14107D1*
X14059Y17268D1*
X14035Y17244D1*
X14011Y17196D1*
Y17100D1*
X14035Y17053D1*
X14059Y17029D1*
X14107Y17004D1*
X14155D1*
X14203Y17029D1*
X14274Y17076D1*
X14513Y17316D1*
Y16981D1*
X10649Y25880D2*
X10434D1*
X10362Y25904D1*
X10338Y25928D1*
X10314Y25975D1*
Y26023D1*
X10338Y26071D1*
X10362Y26095D1*
X10434Y26119D1*
X10649D1*
Y25617D1*
X10482Y25880D2*
X10314Y25617D1*
X10112Y26119D2*
X9849D1*
X9993Y25927D1*
X9921D1*
X9873Y25904D1*
X9849Y25880D1*
X9825Y25808D1*
Y25760D1*
X9849Y25689D1*
X9897Y25640D1*
X9969Y25617D1*
X10041D1*
X10112Y25640D1*
X10136Y25665D1*
X10160Y25712D1*
X9671Y26023D2*
X9623Y26047D1*
X9551Y26119D1*
Y25617D1*
X9348Y26119D2*
X9086D1*
X9229Y25927D1*
X9157D1*
X9109Y25904D1*
X9086Y25880D1*
X9061Y25808D1*
Y25760D1*
X9086Y25689D1*
X9133Y25640D1*
X9205Y25617D1*
X9277D1*
X9348Y25640D1*
X9372Y25665D1*
X9396Y25712D1*
X10411Y29380D2*
X10196D1*
X10124Y29404D1*
X10100Y29428D1*
X10076Y29475D1*
Y29523D1*
X10100Y29571D1*
X10124Y29595D1*
X10196Y29619D1*
X10411D1*
Y29117D1*
X10244Y29380D2*
X10076Y29117D1*
X9874Y29619D2*
X9611D1*
X9754Y29427D1*
X9683D1*
X9635Y29404D1*
X9611Y29380D1*
X9587Y29308D1*
Y29260D1*
X9611Y29189D1*
X9659Y29140D1*
X9731Y29117D1*
X9802D1*
X9874Y29140D1*
X9898Y29165D1*
X9922Y29212D1*
X9433Y29523D2*
X9384Y29547D1*
X9313Y29619D1*
Y29117D1*
X8919D2*
Y29619D1*
X9158Y29284D1*
X8800D1*
X10399Y19630D2*
X10184D1*
X10112Y19654D1*
X10088Y19678D1*
X10064Y19725D1*
Y19773D1*
X10088Y19821D1*
X10112Y19845D1*
X10184Y19869D1*
X10399D1*
Y19367D1*
X10232Y19630D2*
X10064Y19367D1*
X9862Y19869D2*
X9599D1*
X9743Y19677D1*
X9671D1*
X9623Y19654D1*
X9599Y19630D1*
X9575Y19558D1*
Y19510D1*
X9599Y19439D1*
X9647Y19390D1*
X9719Y19367D1*
X9791D1*
X9862Y19390D1*
X9886Y19415D1*
X9910Y19462D1*
X9421Y19773D2*
X9373Y19797D1*
X9301Y19869D1*
Y19367D1*
X8859Y19869D2*
X9098D1*
X9122Y19654D1*
X9098Y19677D1*
X9026Y19702D1*
X8955D1*
X8883Y19677D1*
X8835Y19630D1*
X8811Y19558D1*
Y19510D1*
X8835Y19439D1*
X8883Y19390D1*
X8955Y19367D1*
X9026D1*
X9098Y19390D1*
X9122Y19415D1*
X9146Y19462D1*
X15000Y28306D2*
Y28091D1*
X14976Y28020D1*
X14952Y27995D1*
X14905Y27972D1*
X14857D1*
X14809Y27995D1*
X14785Y28020D1*
X14761Y28091D1*
Y28306D1*
X15263D1*
X15000Y28139D2*
X15263Y27972D1*
X14761Y27769D2*
Y27507D1*
X14953Y27650D1*
Y27578D1*
X14976Y27530D1*
X15000Y27507D1*
X15072Y27482D1*
X15120D1*
X15191Y27507D1*
X15240Y27554D1*
X15263Y27626D1*
Y27698D1*
X15240Y27769D1*
X15215Y27793D1*
X15168Y27817D1*
X14857Y27328D2*
X14833Y27280D1*
X14761Y27208D1*
X15263D1*
X14833Y26767D2*
X14785Y26790D1*
X14761Y26862D1*
Y26910D1*
X14785Y26982D1*
X14857Y27030D1*
X14976Y27053D1*
X15096D1*
X15191Y27030D1*
X15240Y26982D1*
X15263Y26910D1*
Y26886D1*
X15240Y26815D1*
X15191Y26767D1*
X15120Y26743D1*
X15096D1*
X15024Y26767D1*
X14976Y26815D1*
X14953Y26886D1*
Y26910D1*
X14976Y26982D1*
X15024Y27030D1*
X15096Y27053D1*
X10399Y23130D2*
X10184D1*
X10112Y23154D1*
X10088Y23178D1*
X10064Y23225D1*
Y23273D1*
X10088Y23321D1*
X10112Y23345D1*
X10184Y23369D1*
X10399D1*
Y22867D1*
X10232Y23130D2*
X10064Y22867D1*
X9862Y23369D2*
X9599D1*
X9743Y23177D1*
X9671D1*
X9623Y23154D1*
X9599Y23130D1*
X9575Y23058D1*
Y23010D1*
X9599Y22939D1*
X9647Y22890D1*
X9719Y22867D1*
X9791D1*
X9862Y22890D1*
X9886Y22915D1*
X9910Y22962D1*
X9421Y23273D2*
X9373Y23297D1*
X9301Y23369D1*
Y22867D1*
X9051D2*
X8811Y23369D1*
X9146D1*
X15000Y31818D2*
Y31603D1*
X14976Y31531D1*
X14952Y31507D1*
X14905Y31483D1*
X14857D1*
X14809Y31507D1*
X14785Y31531D1*
X14761Y31603D1*
Y31818D1*
X15263D1*
X15000Y31651D2*
X15263Y31483D1*
X14761Y31281D2*
Y31018D1*
X14953Y31162D1*
Y31090D1*
X14976Y31042D1*
X15000Y31018D1*
X15072Y30994D1*
X15120D1*
X15191Y31018D1*
X15240Y31066D1*
X15263Y31138D1*
Y31210D1*
X15240Y31281D1*
X15215Y31305D1*
X15168Y31329D1*
X14857Y30840D2*
X14833Y30792D1*
X14761Y30720D1*
X15263D1*
X14761Y30446D2*
X14785Y30517D1*
X14833Y30542D1*
X14881D1*
X14928Y30517D1*
X14953Y30470D1*
X14976Y30374D1*
X15000Y30302D1*
X15048Y30255D1*
X15096Y30231D1*
X15168D1*
X15215Y30255D1*
X15240Y30278D1*
X15263Y30350D1*
Y30446D1*
X15240Y30517D1*
X15215Y30542D1*
X15168Y30565D1*
X15096D1*
X15048Y30542D1*
X15000Y30493D1*
X14976Y30422D1*
X14953Y30327D1*
X14928Y30278D1*
X14881Y30255D1*
X14833D1*
X14785Y30278D1*
X14761Y30350D1*
Y30446D1*
X14250Y28307D2*
Y28092D1*
X14226Y28020D1*
X14202Y27996D1*
X14155Y27972D1*
X14107D1*
X14059Y27996D1*
X14035Y28020D1*
X14011Y28092D1*
Y28307D1*
X14513D1*
X14250Y28139D2*
X14513Y27972D1*
X14011Y27769D2*
Y27507D1*
X14203Y27650D1*
Y27578D1*
X14226Y27531D1*
X14250Y27507D1*
X14322Y27482D1*
X14370D1*
X14441Y27507D1*
X14490Y27554D1*
X14513Y27626D1*
Y27698D1*
X14490Y27769D1*
X14465Y27793D1*
X14418Y27817D1*
X14107Y27328D2*
X14083Y27280D1*
X14011Y27208D1*
X14513D1*
X14178Y26743D2*
X14250Y26767D1*
X14298Y26814D1*
X14322Y26886D1*
Y26910D1*
X14298Y26982D1*
X14250Y27029D1*
X14178Y27054D1*
X14155D1*
X14083Y27029D1*
X14035Y26982D1*
X14011Y26910D1*
Y26886D1*
X14035Y26814D1*
X14083Y26767D1*
X14178Y26743D1*
X14298D1*
X14418Y26767D1*
X14490Y26814D1*
X14513Y26886D1*
Y26934D1*
X14490Y27006D1*
X14441Y27029D1*
X15000Y22176D2*
Y21961D1*
X14976Y21889D1*
X14952Y21865D1*
X14905Y21841D1*
X14857D1*
X14809Y21865D1*
X14785Y21889D1*
X14761Y21961D1*
Y22176D1*
X15263D1*
X15000Y22009D2*
X15263Y21841D1*
X14761Y21639D2*
Y21376D1*
X14953Y21519D1*
Y21447D1*
X14976Y21400D1*
X15000Y21376D1*
X15072Y21352D1*
X15120D1*
X15191Y21376D1*
X15240Y21424D1*
X15263Y21496D1*
Y21567D1*
X15240Y21639D1*
X15215Y21662D1*
X15168Y21687D1*
X14881Y21173D2*
X14857D1*
X14809Y21149D1*
X14785Y21126D1*
X14761Y21078D1*
Y20982D1*
X14785Y20934D1*
X14809Y20911D1*
X14857Y20886D1*
X14905D1*
X14953Y20911D1*
X15024Y20958D1*
X15263Y21197D1*
Y20863D1*
X14761Y20564D2*
X14785Y20636D1*
X14857Y20684D1*
X14976Y20708D1*
X15048D1*
X15168Y20684D1*
X15240Y20636D1*
X15263Y20564D1*
Y20517D1*
X15240Y20445D1*
X15168Y20398D1*
X15048Y20373D1*
X14976D1*
X14857Y20398D1*
X14785Y20445D1*
X14761Y20517D1*
Y20564D1*
X14857Y20398D2*
X15168Y20684D1*
X14250Y31819D2*
Y31604D1*
X14226Y31532D1*
X14202Y31507D1*
X14155Y31484D1*
X14107D1*
X14059Y31507D1*
X14035Y31532D1*
X14011Y31604D1*
Y31819D1*
X14513D1*
X14250Y31651D2*
X14513Y31484D1*
X14011Y31281D2*
Y31019D1*
X14203Y31162D1*
Y31090D1*
X14226Y31042D1*
X14250Y31019D1*
X14322Y30994D1*
X14370D1*
X14441Y31019D1*
X14490Y31066D1*
X14513Y31138D1*
Y31210D1*
X14490Y31281D1*
X14465Y31305D1*
X14418Y31329D1*
X14131Y30816D2*
X14107D1*
X14059Y30792D1*
X14035Y30768D1*
X14011Y30720D1*
Y30624D1*
X14035Y30577D1*
X14059Y30553D1*
X14107Y30529D1*
X14155D1*
X14203Y30553D1*
X14274Y30601D1*
X14513Y30840D1*
Y30505D1*
X14107Y30351D2*
X14083Y30303D1*
X14011Y30231D1*
X14513D1*
X15000Y25676D2*
Y25461D1*
X14976Y25389D1*
X14952Y25365D1*
X14905Y25341D1*
X14857D1*
X14809Y25365D1*
X14785Y25389D1*
X14761Y25461D1*
Y25676D1*
X15263D1*
X15000Y25509D2*
X15263Y25341D1*
X14761Y25139D2*
Y24876D1*
X14953Y25019D1*
Y24947D1*
X14976Y24900D1*
X15000Y24876D1*
X15072Y24852D1*
X15120D1*
X15191Y24876D1*
X15240Y24924D1*
X15263Y24996D1*
Y25067D1*
X15240Y25139D1*
X15215Y25162D1*
X15168Y25187D1*
X14881Y24673D2*
X14857D1*
X14809Y24649D1*
X14785Y24626D1*
X14761Y24578D1*
Y24482D1*
X14785Y24434D1*
X14809Y24411D1*
X14857Y24386D1*
X14905D1*
X14953Y24411D1*
X15024Y24458D1*
X15263Y24697D1*
Y24363D1*
X14881Y24184D2*
X14857D1*
X14809Y24160D1*
X14785Y24136D1*
X14761Y24088D1*
Y23993D1*
X14785Y23945D1*
X14809Y23921D1*
X14857Y23897D1*
X14905D1*
X14953Y23921D1*
X15024Y23969D1*
X15263Y24208D1*
Y23873D1*
X14250Y22176D2*
Y21961D1*
X14226Y21889D1*
X14202Y21865D1*
X14155Y21841D1*
X14107D1*
X14059Y21865D1*
X14035Y21889D1*
X14011Y21961D1*
Y22176D1*
X14513D1*
X14250Y22009D2*
X14513Y21841D1*
X14011Y21639D2*
Y21376D1*
X14203Y21519D1*
Y21447D1*
X14226Y21400D1*
X14250Y21376D1*
X14322Y21352D1*
X14370D1*
X14441Y21376D1*
X14490Y21424D1*
X14513Y21496D1*
Y21567D1*
X14490Y21639D1*
X14465Y21662D1*
X14418Y21687D1*
X14131Y21173D2*
X14107D1*
X14059Y21149D1*
X14035Y21126D1*
X14011Y21078D1*
Y20982D1*
X14035Y20934D1*
X14059Y20911D1*
X14107Y20886D1*
X14155D1*
X14203Y20911D1*
X14274Y20958D1*
X14513Y21197D1*
Y20863D1*
X14011Y20660D2*
Y20398D1*
X14203Y20541D1*
Y20469D1*
X14226Y20421D1*
X14250Y20398D1*
X14322Y20373D1*
X14370D1*
X14441Y20398D1*
X14490Y20445D1*
X14513Y20517D1*
Y20589D1*
X14490Y20660D1*
X14465Y20684D1*
X14418Y20708D1*
X14250Y25688D2*
Y25473D1*
X14226Y25401D1*
X14202Y25377D1*
X14155Y25353D1*
X14107D1*
X14059Y25377D1*
X14035Y25401D1*
X14011Y25473D1*
Y25688D1*
X14513D1*
X14250Y25521D2*
X14513Y25353D1*
X14011Y25151D2*
Y24888D1*
X14203Y25031D1*
Y24959D1*
X14226Y24912D1*
X14250Y24888D1*
X14322Y24864D1*
X14370D1*
X14441Y24888D1*
X14490Y24936D1*
X14513Y25007D1*
Y25079D1*
X14490Y25151D1*
X14465Y25174D1*
X14418Y25199D1*
X14131Y24685D2*
X14107D1*
X14059Y24661D1*
X14035Y24637D1*
X14011Y24589D1*
Y24494D1*
X14035Y24446D1*
X14059Y24422D1*
X14107Y24398D1*
X14155D1*
X14203Y24422D1*
X14274Y24470D1*
X14513Y24709D1*
Y24374D1*
Y23981D2*
X14011D1*
X14346Y24220D1*
Y23861D1*
X23097Y33382D2*
D69*
Y32980D1*
X22868D1*
X22496Y33382D2*
X22744D1*
Y32980D1*
X22496D1*
X22744Y33190D2*
X22591D1*
X22372Y33382D2*
Y32980D1*
X22238D1*
X22181Y32999D1*
X22142Y33037D1*
X22123Y33076D1*
X22104Y33133D1*
Y33229D1*
X22123Y33286D1*
X22142Y33324D1*
X22181Y33363D1*
X22238Y33382D1*
X22372D1*
X21305Y33286D2*
X21324Y33324D1*
X21363Y33363D1*
X21401Y33382D1*
X21477D1*
X21516Y33363D1*
X21554Y33324D1*
X21573Y33286D1*
X21592Y33229D1*
Y33133D1*
X21573Y33076D1*
X21554Y33037D1*
X21516Y32999D1*
X21477Y32980D1*
X21401D1*
X21363Y32999D1*
X21324Y33037D1*
X21305Y33076D1*
X21086Y33248D2*
X21124Y33229D1*
X21163Y33190D1*
X21182Y33133D1*
Y33095D1*
X21163Y33037D1*
X21124Y32999D1*
X21086Y32980D1*
X21029D1*
X20990Y32999D1*
X20952Y33037D1*
X20933Y33095D1*
Y33133D1*
X20952Y33190D1*
X20990Y33229D1*
X21029Y33248D1*
X21086D1*
X20809D2*
Y32980D1*
Y33171D2*
X20752Y33229D1*
X20713Y33248D1*
X20656D1*
X20618Y33229D1*
X20599Y33171D1*
Y32980D1*
X20418Y33382D2*
Y33056D1*
X20399Y32999D1*
X20360Y32980D1*
X20322D1*
X20475Y33248D2*
X20341D1*
X20199D2*
Y32980D1*
Y33133D2*
X20179Y33190D1*
X20141Y33229D1*
X20103Y33248D1*
X20045D1*
X19826D2*
X19864Y33229D1*
X19903Y33190D1*
X19922Y33133D1*
Y33095D1*
X19903Y33037D1*
X19864Y32999D1*
X19826Y32980D1*
X19769D1*
X19730Y32999D1*
X19692Y33037D1*
X19673Y33095D1*
Y33133D1*
X19692Y33190D1*
X19730Y33229D1*
X19769Y33248D1*
X19826D1*
X19549Y33382D2*
Y32980D1*
X19426Y33382D2*
Y32980D1*
X19302Y33133D2*
X19073D1*
Y33171D1*
X19092Y33210D1*
X19111Y33229D1*
X19149Y33248D1*
X19207D1*
X19245Y33229D1*
X19283Y33190D1*
X19302Y33133D1*
Y33095D1*
X19283Y33037D1*
X19245Y32999D1*
X19207Y32980D1*
X19149D1*
X19111Y32999D1*
X19073Y33037D1*
X18949Y33248D2*
Y32980D1*
Y33133D2*
X18930Y33190D1*
X18892Y33229D1*
X18853Y33248D1*
X18796D1*
X18284Y33382D2*
Y32980D1*
X18111D1*
X18054Y32999D1*
X18035Y33018D1*
X18016Y33056D1*
Y33114D1*
X18035Y33152D1*
X18054Y33171D1*
X18111Y33190D1*
X18054Y33210D1*
X18035Y33229D1*
X18016Y33267D1*
Y33305D1*
X18035Y33343D1*
X18054Y33363D1*
X18111Y33382D1*
X18284D1*
Y33190D2*
X18111D1*
X17797Y33248D2*
X17835Y33229D1*
X17873Y33190D1*
X17892Y33133D1*
Y33095D1*
X17873Y33037D1*
X17835Y32999D1*
X17797Y32980D1*
X17739D1*
X17701Y32999D1*
X17663Y33037D1*
X17643Y33095D1*
Y33133D1*
X17663Y33190D1*
X17701Y33229D1*
X17739Y33248D1*
X17797D1*
X17290D2*
Y32980D1*
Y33190D2*
X17328Y33229D1*
X17367Y33248D1*
X17424D1*
X17462Y33229D1*
X17500Y33190D1*
X17520Y33133D1*
Y33095D1*
X17500Y33037D1*
X17462Y32999D1*
X17424Y32980D1*
X17367D1*
X17328Y32999D1*
X17290Y33037D1*
X17167Y33248D2*
Y32980D1*
Y33133D2*
X17147Y33190D1*
X17109Y33229D1*
X17071Y33248D1*
X17013D1*
X16660Y33382D2*
Y32980D1*
Y33190D2*
X16698Y33229D1*
X16737Y33248D1*
X16794D1*
X16832Y33229D1*
X16871Y33190D1*
X16890Y33133D1*
Y33095D1*
X16871Y33037D1*
X16832Y32999D1*
X16794Y32980D1*
X16737D1*
X16698Y32999D1*
X16660Y33037D1*
X16148Y33190D2*
X15976D1*
X15918Y33210D1*
X15899Y33229D1*
X15880Y33267D1*
Y33305D1*
X15899Y33343D1*
X15918Y33363D1*
X15976Y33382D1*
X16148D1*
Y32980D1*
X16014Y33190D2*
X15880Y32980D1*
X15756Y33133D2*
X15527D1*
Y33171D1*
X15546Y33210D1*
X15565Y33229D1*
X15603Y33248D1*
X15661D1*
X15699Y33229D1*
X15737Y33190D1*
X15756Y33133D1*
Y33095D1*
X15737Y33037D1*
X15699Y32999D1*
X15661Y32980D1*
X15603D1*
X15565Y32999D1*
X15527Y33037D1*
X15403Y33248D2*
X15288Y32980D1*
X15174Y33248D1*
X14547Y33381D2*
X14604Y33362D1*
X14643Y33305D1*
X14662Y33209D1*
Y33152D1*
X14643Y33056D1*
X14604Y32999D1*
X14547Y32980D1*
X14509D1*
X14451Y32999D1*
X14413Y33056D1*
X14394Y33152D1*
Y33209D1*
X14413Y33305D1*
X14451Y33362D1*
X14509Y33381D1*
X14547D1*
X14413Y33305D2*
X14643Y33056D1*
X12874Y33382D2*
Y32980D1*
X12740D1*
X12683Y32999D1*
X12644Y33037D1*
X12625Y33076D1*
X12606Y33133D1*
Y33229D1*
X12625Y33286D1*
X12644Y33324D1*
X12683Y33363D1*
X12740Y33382D1*
X12874D1*
X12253Y33248D2*
Y32980D1*
Y33190D2*
X12291Y33229D1*
X12330Y33248D1*
X12387D1*
X12425Y33229D1*
X12463Y33190D1*
X12483Y33133D1*
Y33095D1*
X12463Y33037D1*
X12425Y32999D1*
X12387Y32980D1*
X12330D1*
X12291Y32999D1*
X12253Y33037D1*
X12130Y33248D2*
Y32980D1*
Y33171D2*
X12072Y33229D1*
X12034Y33248D1*
X11977D1*
X11938Y33229D1*
X11919Y33171D1*
Y32980D1*
X11796Y33382D2*
X11777Y33363D1*
X11757Y33382D1*
X11777Y33401D1*
X11796Y33382D1*
X11777Y33248D2*
Y32980D1*
X11634Y33133D2*
X11404D1*
Y33171D1*
X11423Y33210D1*
X11442Y33229D1*
X11481Y33248D1*
X11538D1*
X11576Y33229D1*
X11615Y33190D1*
X11634Y33133D1*
Y33095D1*
X11615Y33037D1*
X11576Y32999D1*
X11538Y32980D1*
X11481D1*
X11442Y32999D1*
X11404Y33037D1*
X11281Y33382D2*
Y32980D1*
X10769Y33190D2*
X10597D1*
X10539Y33210D1*
X10520Y33229D1*
X10501Y33267D1*
Y33305D1*
X10520Y33343D1*
X10539Y33363D1*
X10597Y33382D1*
X10769D1*
Y32980D1*
X10635Y33190D2*
X10501Y32980D1*
X10282Y33248D2*
X10320Y33229D1*
X10358Y33190D1*
X10377Y33133D1*
Y33095D1*
X10358Y33037D1*
X10320Y32999D1*
X10282Y32980D1*
X10224D1*
X10186Y32999D1*
X10148Y33037D1*
X10128Y33095D1*
Y33133D1*
X10148Y33190D1*
X10186Y33229D1*
X10224Y33248D1*
X10282D1*
X10005D2*
X9928Y32980D1*
X9852Y33248D1*
X9775Y32980D1*
X9699Y33248D1*
X9346D2*
Y32980D1*
Y33190D2*
X9384Y33229D1*
X9422Y33248D1*
X9479D1*
X9518Y33229D1*
X9556Y33190D1*
X9575Y33133D1*
Y33095D1*
X9556Y33037D1*
X9518Y32999D1*
X9479Y32980D1*
X9422D1*
X9384Y32999D1*
X9346Y33037D1*
X9222Y33248D2*
Y32980D1*
Y33171D2*
X9165Y33229D1*
X9126Y33248D1*
X9069D1*
X9031Y33229D1*
X9012Y33171D1*
Y32980D1*
X8499Y33180D2*
X8278D1*
X7747Y33286D2*
Y33305D1*
X7728Y33343D1*
X7709Y33362D1*
X7670Y33381D1*
X7594D1*
X7556Y33362D1*
X7537Y33343D1*
X7517Y33305D1*
Y33267D1*
X7537Y33228D1*
X7575Y33171D1*
X7766Y32980D1*
X7498D1*
X7260Y33381D2*
X7317Y33362D1*
X7356Y33305D1*
X7375Y33209D1*
Y33152D1*
X7356Y33056D1*
X7317Y32999D1*
X7260Y32980D1*
X7222D1*
X7164Y32999D1*
X7126Y33056D1*
X7107Y33152D1*
Y33209D1*
X7126Y33305D1*
X7164Y33362D1*
X7222Y33381D1*
X7260D1*
X7126Y33305D2*
X7356Y33056D1*
X6983Y33305D2*
X6945Y33324D1*
X6887Y33381D1*
Y32980D1*
X6572D2*
Y33381D1*
X6764Y33114D1*
X6477D1*
X6353Y33180D2*
X6132D1*
X5894Y33381D2*
X5951Y33362D1*
X5990Y33305D1*
X6009Y33209D1*
Y33152D1*
X5990Y33056D1*
X5951Y32999D1*
X5894Y32980D1*
X5856D1*
X5798Y32999D1*
X5760Y33056D1*
X5741Y33152D1*
Y33209D1*
X5760Y33305D1*
X5798Y33362D1*
X5856Y33381D1*
X5894D1*
X5760Y33305D2*
X5990Y33056D1*
X5388Y33381D2*
X5579D1*
X5598Y33209D1*
X5579Y33228D1*
X5521Y33248D1*
X5464D1*
X5407Y33228D1*
X5368Y33190D1*
X5349Y33133D1*
Y33095D1*
X5368Y33037D1*
X5407Y32999D1*
X5464Y32980D1*
X5521D1*
X5579Y32999D1*
X5598Y33018D1*
X5617Y33056D1*
X5226Y33180D2*
X5005D1*
X4881Y33305D2*
X4843Y33324D1*
X4785Y33381D1*
Y32980D1*
X4585D2*
X4394Y33381D1*
X4662D1*
M02*
