G04 DipTrace 2.3.1.0*
%INBottom.gbr*%
%MOIN*%
%ADD14C,0.01*%
%ADD17C,0.025*%
%ADD18C,0.013*%
%ADD21R,0.0394X0.0433*%
%ADD22R,0.0433X0.0394*%
%ADD24R,0.063X0.0315*%
%ADD25C,0.08*%
%ADD26R,0.08X0.08*%
%ADD28R,0.0413X0.0256*%
%ADD31R,0.0591X0.0591*%
%ADD32C,0.07*%
%FSLAX44Y44*%
G04*
G70*
G90*
G75*
G01*
%LNBottom*%
%LPD*%
X22109Y17190D2*
D14*
X22190D1*
X22440Y16940D1*
Y16529D1*
X22109Y17190D2*
Y19521D1*
X21940Y19690D1*
X16690D1*
X16440Y19440D1*
Y18940D1*
X11690Y30690D2*
X10942D1*
X10940Y30692D1*
X10692D1*
X10440Y30440D1*
Y27440D1*
X10690Y27190D1*
X10938D1*
X10940Y27192D1*
X11688D1*
X11690Y27190D1*
X10692Y27192D2*
X10440Y26940D1*
Y24690D1*
X10690Y24440D1*
X10938D1*
X10940Y24442D1*
X10692D2*
X10440Y24190D1*
Y21190D1*
X10690Y20940D1*
X10938D1*
X10940Y20942D1*
X10692D2*
X10440Y20690D1*
Y17690D1*
X10690Y17440D1*
X10938D1*
X10940Y17442D1*
X10692D2*
X10440Y17190D1*
Y14190D1*
X10690Y13940D1*
X10938D1*
X10940Y13942D1*
X10692D2*
X10440Y13690D1*
Y10690D1*
X10690Y10440D1*
X10938D1*
X10940Y10442D1*
X10692D2*
X10440Y10190D1*
Y7190D1*
X10690Y6940D1*
X10938D1*
X10940Y6942D1*
X11688D1*
X11690Y6940D1*
X10940Y10442D2*
X11688D1*
X11690Y10440D1*
Y13940D2*
X10942D1*
X11690Y17440D2*
X10942D1*
X11690Y20940D2*
X10942D1*
X11690Y24440D2*
X10942D1*
X10440Y30440D2*
X10418Y30418D1*
Y31668D1*
X10690Y31940D1*
X15690D1*
X16190Y31440D1*
X16690D1*
X21440Y12440D2*
X22609D1*
X22690Y12521D1*
X19432Y14940D2*
D3*
X12440Y6940D2*
X17440D1*
X20190Y9690D1*
Y14690D1*
X19940Y14940D1*
X19432D1*
X12440Y10440D2*
Y8440D1*
X13440Y7440D1*
X16940D1*
X18690Y9190D1*
Y12190D1*
X18940Y12440D1*
X19690D1*
X19940Y12690D1*
Y13432D1*
X19432Y13940D1*
X12440D2*
Y11940D1*
X12940Y11440D1*
Y8440D1*
X13440Y7940D1*
X16690D1*
X18190Y9440D1*
Y12440D1*
X18690Y12940D1*
X19432D1*
X16440D2*
X13940D1*
X12940Y13940D1*
Y15190D1*
X12440Y15690D1*
Y17440D1*
Y20940D2*
Y18690D1*
X12940Y18190D1*
Y15690D1*
X13440Y15190D1*
Y14190D1*
X13690Y13940D1*
X16440D1*
X12440Y24440D2*
Y22440D1*
X12940Y21940D1*
Y18690D1*
X13440Y18190D1*
Y15940D1*
X13940Y15440D1*
Y15190D1*
X14190Y14940D1*
X16440D1*
Y11940D2*
D3*
X12440Y27190D2*
Y25940D1*
X12940Y25440D1*
Y22690D1*
X13440Y22190D1*
Y18940D1*
X13940Y18440D1*
Y16190D1*
X14690Y15440D1*
X16940D1*
X17190Y15190D1*
Y12190D1*
X16940Y11940D1*
X16440D1*
X12440Y30690D2*
Y28690D1*
X12940Y28190D1*
Y26190D1*
X13440Y25690D1*
Y22940D1*
X13940Y22440D1*
Y19190D1*
X14440Y18690D1*
Y16690D1*
X14690Y16440D1*
X17440D1*
X17690Y16190D1*
Y11190D1*
X17440Y10940D1*
X16440D1*
X9271Y6440D2*
Y7109D1*
X9190Y7190D1*
X6440Y7940D2*
X8940D1*
X9190Y7690D1*
Y7190D1*
X6440Y9940D2*
X9271D1*
X9190Y10690D2*
Y10021D1*
X9271Y9940D1*
X9190Y14190D2*
Y13521D1*
X9271Y13440D1*
X6440Y14940D2*
X8940D1*
X9190Y14690D1*
Y14190D1*
Y17690D2*
Y17021D1*
X9271Y16940D1*
X6440D2*
X9271D1*
X6440Y21940D2*
X8940D1*
X9190Y21690D1*
Y21190D1*
Y20521D1*
X9271Y20440D1*
X6440Y23940D2*
X9271D1*
Y24609D1*
X9190Y24690D1*
X6440Y28190D2*
X8940D1*
X9190Y27940D1*
Y27440D1*
Y26771D1*
X9271Y26690D1*
X6440Y30190D2*
X9271D1*
Y30859D1*
X9190Y30940D1*
X9940Y20440D2*
Y21221D1*
X10034Y21316D1*
X10940Y21690D2*
X11609D1*
X11690Y21609D1*
X12440D1*
X9940Y9940D2*
Y10721D1*
X10034Y10816D1*
X9940Y23940D2*
Y24721D1*
X10034Y24816D1*
X9940Y6440D2*
Y7221D1*
X10034Y7316D1*
X10940Y25190D2*
X11609D1*
X11690Y25109D1*
X12440D1*
X11690Y7609D2*
X12440D1*
X10940Y7690D2*
X11609D1*
X11690Y7609D1*
X9940Y16940D2*
Y17721D1*
X10034Y17816D1*
X10940Y11190D2*
X11609D1*
X11690Y11109D1*
X12440D1*
X9940Y26690D2*
Y27471D1*
X10034Y27566D1*
X9940Y13440D2*
Y14221D1*
X10034Y14316D1*
X10940Y27940D2*
X11609D1*
X11690Y27859D1*
X12440D1*
X10940Y14690D2*
X11609D1*
X11690Y14609D1*
X12440D1*
X10940Y18190D2*
X11609D1*
X11690Y18109D1*
X12440D1*
X9940Y30190D2*
Y30971D1*
X10034Y31066D1*
X21440Y16690D2*
Y17190D1*
X10940Y31440D2*
X11609D1*
X11690Y31359D1*
X12440D1*
X22440Y15190D2*
Y13690D1*
X22409Y13659D1*
X22190Y13440D1*
X21440D1*
X22409Y13659D2*
X22471D1*
X22690Y13440D1*
Y13190D1*
X21440Y11440D2*
X20690D1*
X20440Y11690D1*
Y17690D1*
X20190Y17940D1*
X19432D1*
X21440Y14440D2*
Y15190D1*
X22440Y21690D2*
Y20440D1*
X22190Y20190D1*
X16690D1*
X15690Y19190D1*
Y18690D1*
X15940Y18440D1*
X17690D1*
X17940Y18190D1*
Y10440D1*
X17440Y9940D1*
X16440D1*
X4340Y33316D2*
D17*
X23542D1*
X4340Y33068D2*
X23542D1*
X4340Y32819D2*
X23542D1*
X4340Y32570D2*
X23542D1*
X4340Y32322D2*
X16347D1*
X17033D2*
X17347D1*
X18033D2*
X18347D1*
X19033D2*
X20347D1*
X21033D2*
X21347D1*
X22033D2*
X22347D1*
X23033D2*
X23542D1*
X4340Y32073D2*
X16108D1*
X19272D2*
X20108D1*
X23272D2*
X23542D1*
X4340Y31824D2*
X10394D1*
X12979D2*
X16030D1*
X19350D2*
X20030D1*
X23350D2*
X23542D1*
X4340Y31575D2*
X7839D1*
X9932D2*
X10394D1*
X12979D2*
X16022D1*
X19358D2*
X20022D1*
X23358D2*
X23542D1*
X4340Y31327D2*
X7565D1*
X12979D2*
X16022D1*
X19358D2*
X20022D1*
X23358D2*
X23542D1*
X4340Y31078D2*
X7464D1*
X12979D2*
X16026D1*
X19354D2*
X20026D1*
X23354D2*
X23542D1*
X4340Y30829D2*
X6058D1*
X6822D2*
X7460D1*
X12979D2*
X16097D1*
X19283D2*
X20097D1*
X23283D2*
X23542D1*
X4340Y30581D2*
X5585D1*
X7295D2*
X7546D1*
X12979D2*
X16311D1*
X17069D2*
X17311D1*
X18069D2*
X18311D1*
X19069D2*
X20311D1*
X21069D2*
X21311D1*
X22069D2*
X22311D1*
X23069D2*
X23542D1*
X4340Y30332D2*
X5464D1*
X12979D2*
X23542D1*
X4340Y30083D2*
X5456D1*
X10498D2*
X12050D1*
X12830D2*
X23542D1*
X4340Y29835D2*
X5558D1*
X10498D2*
X12050D1*
X12830D2*
X23542D1*
X4340Y29586D2*
X5593D1*
X7287D2*
X12050D1*
X12830D2*
X20593D1*
X22287D2*
X23542D1*
X4340Y29337D2*
X5468D1*
X7412D2*
X12050D1*
X12830D2*
X20468D1*
X22412D2*
X23542D1*
X4340Y29089D2*
X5456D1*
X7424D2*
X12050D1*
X12830D2*
X20456D1*
X22424D2*
X23542D1*
X4340Y28840D2*
X5554D1*
X7326D2*
X12050D1*
X12830D2*
X20554D1*
X22326D2*
X23542D1*
X4340Y28591D2*
X5597D1*
X7283D2*
X12065D1*
X13080D2*
X20597D1*
X22283D2*
X23542D1*
X4340Y28343D2*
X5468D1*
X9330D2*
X10394D1*
X13295D2*
X20468D1*
X22412D2*
X23542D1*
X4340Y28094D2*
X5456D1*
X9932D2*
X10394D1*
X13330D2*
X20456D1*
X22424D2*
X23542D1*
X4340Y27845D2*
X5550D1*
X13330D2*
X20550D1*
X22330D2*
X23542D1*
X4340Y27596D2*
X5847D1*
X7033D2*
X7468D1*
X13330D2*
X20601D1*
X22279D2*
X23542D1*
X4340Y27348D2*
X7456D1*
X13330D2*
X20472D1*
X22408D2*
X23542D1*
X4340Y27099D2*
X7538D1*
X13330D2*
X20456D1*
X22424D2*
X23542D1*
X4340Y26850D2*
X7761D1*
X13330D2*
X20546D1*
X22334D2*
X23542D1*
X4340Y26602D2*
X8714D1*
X10498D2*
X12050D1*
X13330D2*
X20839D1*
X22041D2*
X23542D1*
X4340Y26353D2*
X8714D1*
X10498D2*
X12050D1*
X13330D2*
X23542D1*
X4340Y26104D2*
X12050D1*
X13569D2*
X23542D1*
X4340Y25856D2*
X12061D1*
X13791D2*
X23542D1*
X4340Y25607D2*
X10394D1*
X13830D2*
X20608D1*
X22272D2*
X23542D1*
X4340Y25358D2*
X7913D1*
X9932D2*
X10394D1*
X13830D2*
X20472D1*
X22408D2*
X23542D1*
X4340Y25110D2*
X7585D1*
X13830D2*
X20452D1*
X22428D2*
X23542D1*
X4340Y24861D2*
X7472D1*
X13830D2*
X20538D1*
X22342D2*
X23542D1*
X4340Y24612D2*
X7456D1*
X13830D2*
X20612D1*
X22268D2*
X23542D1*
X4340Y24364D2*
X5616D1*
X7264D2*
X7530D1*
X13830D2*
X20476D1*
X22404D2*
X23542D1*
X4340Y24115D2*
X5476D1*
X13830D2*
X20452D1*
X22428D2*
X23542D1*
X4340Y23866D2*
X5452D1*
X10498D2*
X12050D1*
X13830D2*
X20534D1*
X22346D2*
X23542D1*
X4340Y23617D2*
X5534D1*
X10498D2*
X12050D1*
X13830D2*
X20616D1*
X22264D2*
X23542D1*
X4340Y23369D2*
X5620D1*
X7260D2*
X12050D1*
X13830D2*
X20476D1*
X22404D2*
X23542D1*
X4340Y23120D2*
X5479D1*
X7401D2*
X12050D1*
X13830D2*
X20452D1*
X22428D2*
X23542D1*
X4340Y22871D2*
X5452D1*
X7428D2*
X12050D1*
X14049D2*
X20534D1*
X22346D2*
X23542D1*
X4340Y22623D2*
X5534D1*
X7350D2*
X12050D1*
X14279D2*
X20800D1*
X22080D2*
X22222D1*
X22658D2*
X23542D1*
X4340Y22374D2*
X5624D1*
X7256D2*
X12058D1*
X14330D2*
X20886D1*
X22994D2*
X23542D1*
X4340Y22125D2*
X5479D1*
X9295D2*
X10394D1*
X14330D2*
X20788D1*
X23092D2*
X23542D1*
X4340Y21877D2*
X5452D1*
X9932D2*
X10394D1*
X14330D2*
X20772D1*
X23108D2*
X23542D1*
X4340Y21628D2*
X5530D1*
X14330D2*
X20772D1*
X23108D2*
X23542D1*
X4340Y21379D2*
X5788D1*
X7092D2*
X7476D1*
X14330D2*
X20772D1*
X23108D2*
X23542D1*
X4340Y21131D2*
X7452D1*
X14330D2*
X20819D1*
X23061D2*
X23542D1*
X4340Y20882D2*
X7519D1*
X14330D2*
X20999D1*
X21881D2*
X21998D1*
X22881D2*
X23542D1*
X4340Y20633D2*
X7718D1*
X14330D2*
X22050D1*
X22830D2*
X23542D1*
X4340Y20385D2*
X8714D1*
X10498D2*
X12050D1*
X14330D2*
X16343D1*
X22826D2*
X23542D1*
X4340Y20136D2*
X8714D1*
X10498D2*
X12050D1*
X14330D2*
X16097D1*
X22678D2*
X23542D1*
X4340Y19887D2*
X12050D1*
X14330D2*
X15847D1*
X22420D2*
X23542D1*
X4340Y19638D2*
X12050D1*
X14330D2*
X15597D1*
X22479D2*
X23542D1*
X4340Y19390D2*
X12050D1*
X14330D2*
X15358D1*
X22498D2*
X23542D1*
X4340Y19141D2*
X12050D1*
X14529D2*
X15300D1*
X17076D2*
X18772D1*
X20092D2*
X21718D1*
X22498D2*
X23542D1*
X4340Y18892D2*
X12050D1*
X14768D2*
X15300D1*
X17076D2*
X18745D1*
X20119D2*
X21718D1*
X22498D2*
X23542D1*
X4340Y18644D2*
X12054D1*
X14830D2*
X15304D1*
X18026D2*
X18811D1*
X20053D2*
X21718D1*
X22498D2*
X23542D1*
X4340Y18395D2*
X8046D1*
X8336D2*
X8448D1*
X9932D2*
X10394D1*
X14830D2*
X15444D1*
X18268D2*
X18921D1*
X19944D2*
X21718D1*
X22498D2*
X23542D1*
X4340Y18146D2*
X7616D1*
X14830D2*
X15698D1*
X18330D2*
X18776D1*
X20526D2*
X21718D1*
X22498D2*
X23542D1*
X4340Y17898D2*
X7479D1*
X14830D2*
X15753D1*
X17127D2*
X17550D1*
X18330D2*
X18745D1*
X20764D2*
X21718D1*
X22498D2*
X23542D1*
X4340Y17649D2*
X7452D1*
X14830D2*
X15815D1*
X17065D2*
X17550D1*
X18330D2*
X18808D1*
X22666D2*
X23542D1*
X4340Y17400D2*
X5644D1*
X7236D2*
X7511D1*
X14830D2*
X15936D1*
X16944D2*
X17550D1*
X18330D2*
X18929D1*
X22666D2*
X23542D1*
X4340Y17152D2*
X5491D1*
X14830D2*
X15784D1*
X17096D2*
X17550D1*
X18330D2*
X18776D1*
X22764D2*
X23542D1*
X4340Y16903D2*
X5452D1*
X10498D2*
X12050D1*
X14830D2*
X15753D1*
X17127D2*
X17550D1*
X18330D2*
X18745D1*
X23096D2*
X23542D1*
X4340Y16654D2*
X5519D1*
X10498D2*
X12050D1*
X18330D2*
X18808D1*
X23096D2*
X23542D1*
X4340Y16406D2*
X5651D1*
X7229D2*
X12050D1*
X18330D2*
X18933D1*
X23096D2*
X23542D1*
X4340Y16157D2*
X5491D1*
X7389D2*
X12050D1*
X18330D2*
X18780D1*
X23096D2*
X23542D1*
X4340Y15908D2*
X5452D1*
X7428D2*
X12050D1*
X14764D2*
X15749D1*
X17131D2*
X17300D1*
X18330D2*
X18741D1*
X20830D2*
X23542D1*
X4340Y15659D2*
X5515D1*
X7365D2*
X12050D1*
X18330D2*
X18804D1*
X23096D2*
X23542D1*
X4340Y15411D2*
X5655D1*
X7225D2*
X12179D1*
X18330D2*
X18936D1*
X23096D2*
X23542D1*
X4340Y15162D2*
X5491D1*
X9260D2*
X12429D1*
X18330D2*
X18780D1*
X23096D2*
X23542D1*
X4340Y14913D2*
X5452D1*
X9502D2*
X10394D1*
X18330D2*
X18741D1*
X23096D2*
X23542D1*
X4340Y14665D2*
X5511D1*
X13830D2*
X13925D1*
X18330D2*
X18804D1*
X22830D2*
X23542D1*
X4340Y14416D2*
X5726D1*
X7154D2*
X7487D1*
X13830D2*
X15952D1*
X18330D2*
X18944D1*
X22830D2*
X23542D1*
X4340Y14167D2*
X7452D1*
X18330D2*
X18784D1*
X22830D2*
X23542D1*
X4340Y13919D2*
X7503D1*
X18330D2*
X18741D1*
X22830D2*
X23542D1*
X4340Y13670D2*
X7675D1*
X18330D2*
X18800D1*
X23229D2*
X23542D1*
X4340Y13421D2*
X8714D1*
X10498D2*
X11151D1*
X13998D2*
X15956D1*
X18330D2*
X18948D1*
X23229D2*
X23542D1*
X4340Y13173D2*
X8714D1*
X10498D2*
X12050D1*
X12830D2*
X13167D1*
X23229D2*
X23542D1*
X4340Y12924D2*
X12050D1*
X12830D2*
X13417D1*
X23229D2*
X23542D1*
X4340Y12675D2*
X12050D1*
X12830D2*
X13663D1*
X23229D2*
X23542D1*
X4340Y12427D2*
X12050D1*
X12830D2*
X15964D1*
X23229D2*
X23542D1*
X4340Y12178D2*
X12050D1*
X12830D2*
X15796D1*
X23229D2*
X23542D1*
X4340Y11929D2*
X12050D1*
X12990D2*
X15749D1*
X22205D2*
X23542D1*
X4340Y11680D2*
X12159D1*
X13240D2*
X15804D1*
X17221D2*
X17297D1*
X22381D2*
X23542D1*
X4340Y11432D2*
X10394D1*
X13330D2*
X15968D1*
X16912D2*
X17300D1*
X22428D2*
X23542D1*
X4340Y11183D2*
X7647D1*
X13330D2*
X15796D1*
X22373D2*
X23542D1*
X4340Y10934D2*
X7495D1*
X13330D2*
X15749D1*
X22197D2*
X23542D1*
X4340Y10686D2*
X7448D1*
X13330D2*
X15800D1*
X22377D2*
X23542D1*
X4340Y10437D2*
X5686D1*
X7194D2*
X7495D1*
X13330D2*
X15972D1*
X16908D2*
X17397D1*
X22428D2*
X23542D1*
X4340Y10188D2*
X5503D1*
X13330D2*
X15800D1*
X22377D2*
X23542D1*
X4340Y9940D2*
X5452D1*
X10498D2*
X11151D1*
X13330D2*
X15749D1*
X22194D2*
X23542D1*
X4340Y9691D2*
X5503D1*
X10498D2*
X12050D1*
X13330D2*
X15800D1*
X22377D2*
X23542D1*
X4340Y9442D2*
X5686D1*
X7194D2*
X8714D1*
X10498D2*
X12050D1*
X13330D2*
X15976D1*
X16904D2*
X17651D1*
X22428D2*
X23542D1*
X4340Y9194D2*
X5503D1*
X7377D2*
X12050D1*
X13330D2*
X17401D1*
X20236D2*
X20503D1*
X22377D2*
X23542D1*
X4340Y8945D2*
X5452D1*
X7428D2*
X12050D1*
X13330D2*
X17155D1*
X19986D2*
X20683D1*
X22197D2*
X23542D1*
X4340Y8696D2*
X5503D1*
X7377D2*
X12050D1*
X13330D2*
X16905D1*
X19736D2*
X23542D1*
X4340Y8448D2*
X5679D1*
X7201D2*
X12050D1*
X13475D2*
X16655D1*
X19490D2*
X23542D1*
X4340Y8199D2*
X5507D1*
X9221D2*
X12140D1*
X19240D2*
X23542D1*
X4340Y7950D2*
X5452D1*
X9471D2*
X10394D1*
X18990D2*
X23542D1*
X4340Y7701D2*
X5499D1*
X18744D2*
X23542D1*
X4340Y7453D2*
X5671D1*
X7209D2*
X7499D1*
X18494D2*
X23542D1*
X4340Y7204D2*
X7452D1*
X18244D2*
X23542D1*
X4340Y6955D2*
X7491D1*
X17998D2*
X23542D1*
X4340Y6707D2*
X7640D1*
X20166D2*
X23542D1*
X4340Y6458D2*
X8714D1*
X10498D2*
X11151D1*
X12979D2*
X17011D1*
X20369D2*
X23542D1*
X4340Y6209D2*
X8714D1*
X10498D2*
X16952D1*
X20428D2*
X23542D1*
X4340Y5961D2*
X8714D1*
X10498D2*
X16995D1*
X20385D2*
X23542D1*
X4340Y5712D2*
X17163D1*
X20217D2*
X23542D1*
X4340Y5463D2*
X17011D1*
X20369D2*
X23542D1*
X4340Y5215D2*
X16952D1*
X20428D2*
X23542D1*
X4340Y4966D2*
X16995D1*
X20385D2*
X23542D1*
X4340Y4717D2*
X17159D1*
X20225D2*
X23542D1*
X4340Y4469D2*
X23542D1*
X22924Y13722D2*
X23202D1*
X23198Y12658D1*
X23202Y12577D1*
Y11989D1*
X22217Y11988D1*
X22183Y11953D1*
X22194Y11916D1*
X22289Y11806D1*
X22344Y11711D1*
X22400Y11529D1*
X22402Y11384D1*
X22383Y11276D1*
X22309Y11101D1*
X22198Y10967D1*
X22194Y10916D1*
X22289Y10806D1*
X22344Y10711D1*
X22400Y10529D1*
X22402Y10384D1*
X22383Y10276D1*
X22309Y10101D1*
X22198Y9967D1*
X22194Y9916D1*
X22289Y9806D1*
X22344Y9711D1*
X22400Y9529D1*
X22402Y9384D1*
X22383Y9276D1*
X22309Y9101D1*
X22217Y8988D1*
X22134Y8918D1*
X21964Y8831D1*
X21819Y8804D1*
X21516Y8799D1*
X21060Y8804D1*
X20874Y8846D1*
X20747Y8917D1*
X20664Y8987D1*
X20549Y9139D1*
X20497Y9275D1*
X20478Y9383D1*
X20473Y9459D1*
X19299Y8283D1*
X17849Y6833D1*
X18312Y6828D1*
X18504Y6785D1*
X18656Y6697D1*
X18720Y6695D1*
X18844Y6769D1*
X18947Y6806D1*
X19114Y6831D1*
X19820Y6826D1*
X20006Y6784D1*
X20133Y6713D1*
X20216Y6643D1*
X20331Y6491D1*
X20383Y6355D1*
X20402Y6247D1*
X20392Y6057D1*
X20345Y5920D1*
X20290Y5825D1*
X20198Y5717D1*
X20194Y5666D1*
X20289Y5556D1*
X20344Y5461D1*
X20400Y5279D1*
X20402Y5134D1*
X20383Y5026D1*
X20309Y4851D1*
X20217Y4738D1*
X20134Y4668D1*
X19964Y4581D1*
X19819Y4554D1*
X19516Y4549D1*
X19060Y4554D1*
X18874Y4596D1*
X18724Y4683D1*
X18660Y4685D1*
X18536Y4611D1*
X18433Y4574D1*
X18266Y4549D1*
X17560Y4554D1*
X17374Y4596D1*
X17247Y4667D1*
X17164Y4737D1*
X17049Y4889D1*
X16997Y5025D1*
X16978Y5133D1*
X16988Y5323D1*
X17035Y5460D1*
X17090Y5555D1*
X17182Y5663D1*
X17186Y5714D1*
X17091Y5824D1*
X17036Y5919D1*
X16980Y6101D1*
X16978Y6246D1*
X16997Y6354D1*
X17071Y6529D1*
X17107Y6575D1*
X12952D1*
Y6408D1*
X11928Y6412D1*
X11877Y6408D1*
X11178D1*
Y6500D1*
X10472Y6499D1*
Y5928D1*
X9408Y5932D1*
X9302Y5928D1*
X8739D1*
Y6479D1*
X8475Y6475D1*
Y6534D1*
X8313Y6486D1*
X8188Y6475D1*
X8064Y6486D1*
X7943Y6519D1*
X7830Y6572D1*
X7728Y6644D1*
X7640Y6733D1*
X7569Y6835D1*
X7517Y6949D1*
X7485Y7069D1*
X7475Y7194D1*
X7487Y7318D1*
X7520Y7438D1*
X7589Y7574D1*
X7290Y7575D1*
X7160Y7435D1*
X7036Y7361D1*
X6933Y7324D1*
X6766Y7299D1*
X6060Y7304D1*
X5874Y7346D1*
X5747Y7417D1*
X5664Y7487D1*
X5549Y7639D1*
X5497Y7775D1*
X5478Y7883D1*
X5488Y8073D1*
X5535Y8210D1*
X5590Y8305D1*
X5682Y8413D1*
X5686Y8464D1*
X5591Y8574D1*
X5536Y8669D1*
X5480Y8851D1*
X5478Y8996D1*
X5497Y9104D1*
X5571Y9279D1*
X5682Y9413D1*
X5686Y9464D1*
X5591Y9574D1*
X5536Y9669D1*
X5480Y9851D1*
X5478Y9996D1*
X5497Y10104D1*
X5571Y10279D1*
X5663Y10392D1*
X5746Y10462D1*
X5916Y10549D1*
X6061Y10576D1*
X6364Y10581D1*
X6820Y10576D1*
X7006Y10534D1*
X7133Y10463D1*
X7216Y10393D1*
X7291Y10304D1*
X7585Y10305D1*
X7517Y10449D1*
X7485Y10569D1*
X7475Y10694D1*
X7487Y10818D1*
X7520Y10938D1*
X7573Y11051D1*
X7645Y11153D1*
X7734Y11241D1*
X7837Y11312D1*
X7950Y11364D1*
X8071Y11395D1*
X8196Y11405D1*
X8320Y11393D1*
X8472Y11345D1*
X8475Y11405D1*
X9905D1*
Y11260D1*
X10415Y11259D1*
X10418Y11633D1*
X11180D1*
X11178Y11641D1*
X12202Y11637D1*
X12178Y11641D1*
X12221D1*
X12110Y11784D1*
X12076Y11918D1*
X12075Y13405D1*
X11902Y13408D1*
X11178D1*
Y13500D1*
X10472Y13499D1*
Y12928D1*
X9408Y12932D1*
X9302Y12928D1*
X8739D1*
Y13479D1*
X8475Y13475D1*
Y13534D1*
X8313Y13486D1*
X8188Y13475D1*
X8064Y13486D1*
X7943Y13519D1*
X7830Y13572D1*
X7728Y13644D1*
X7640Y13733D1*
X7569Y13835D1*
X7517Y13949D1*
X7485Y14069D1*
X7475Y14194D1*
X7487Y14318D1*
X7520Y14438D1*
X7589Y14574D1*
X7290Y14575D1*
X7160Y14435D1*
X7036Y14361D1*
X6933Y14324D1*
X6766Y14299D1*
X6060Y14304D1*
X5874Y14346D1*
X5747Y14417D1*
X5664Y14487D1*
X5549Y14639D1*
X5497Y14775D1*
X5478Y14883D1*
X5488Y15073D1*
X5535Y15210D1*
X5590Y15305D1*
X5682Y15413D1*
X5686Y15464D1*
X5591Y15574D1*
X5536Y15669D1*
X5480Y15851D1*
X5478Y15996D1*
X5497Y16104D1*
X5571Y16279D1*
X5682Y16413D1*
X5686Y16464D1*
X5591Y16574D1*
X5536Y16669D1*
X5480Y16851D1*
X5478Y16996D1*
X5497Y17104D1*
X5571Y17279D1*
X5663Y17392D1*
X5746Y17462D1*
X5916Y17549D1*
X6061Y17576D1*
X6364Y17581D1*
X6820Y17576D1*
X7006Y17534D1*
X7133Y17463D1*
X7216Y17393D1*
X7291Y17304D1*
X7585Y17305D1*
X7517Y17449D1*
X7485Y17569D1*
X7475Y17694D1*
X7487Y17818D1*
X7520Y17938D1*
X7573Y18051D1*
X7645Y18153D1*
X7734Y18241D1*
X7837Y18312D1*
X7950Y18364D1*
X8071Y18395D1*
X8196Y18405D1*
X8320Y18393D1*
X8472Y18345D1*
X8475Y18405D1*
X9905D1*
Y18260D1*
X10415Y18259D1*
X10418Y18633D1*
X11180D1*
X11178Y18641D1*
X12080D1*
X12075Y18690D1*
Y20405D1*
X11902Y20408D1*
X11178D1*
Y20500D1*
X10472Y20499D1*
Y19928D1*
X9408Y19932D1*
X9302Y19928D1*
X8739D1*
Y20479D1*
X8475Y20475D1*
Y20534D1*
X8313Y20486D1*
X8188Y20475D1*
X8064Y20486D1*
X7943Y20519D1*
X7830Y20572D1*
X7728Y20644D1*
X7640Y20733D1*
X7569Y20835D1*
X7517Y20949D1*
X7485Y21069D1*
X7475Y21194D1*
X7487Y21318D1*
X7520Y21438D1*
X7589Y21574D1*
X7290Y21575D1*
X7160Y21435D1*
X7036Y21361D1*
X6933Y21324D1*
X6766Y21299D1*
X6060Y21304D1*
X5874Y21346D1*
X5747Y21417D1*
X5664Y21487D1*
X5549Y21639D1*
X5497Y21775D1*
X5478Y21883D1*
X5488Y22073D1*
X5535Y22210D1*
X5590Y22305D1*
X5682Y22413D1*
X5686Y22464D1*
X5591Y22574D1*
X5536Y22669D1*
X5480Y22851D1*
X5478Y22996D1*
X5497Y23104D1*
X5571Y23279D1*
X5682Y23413D1*
X5686Y23464D1*
X5591Y23574D1*
X5536Y23669D1*
X5480Y23851D1*
X5478Y23996D1*
X5497Y24104D1*
X5571Y24279D1*
X5663Y24392D1*
X5746Y24462D1*
X5916Y24549D1*
X6061Y24576D1*
X6364Y24581D1*
X6820Y24576D1*
X7006Y24534D1*
X7133Y24463D1*
X7216Y24393D1*
X7291Y24304D1*
X7585Y24305D1*
X7517Y24449D1*
X7485Y24569D1*
X7475Y24694D1*
X7487Y24818D1*
X7520Y24938D1*
X7573Y25051D1*
X7645Y25153D1*
X7734Y25241D1*
X7837Y25312D1*
X7950Y25364D1*
X8071Y25395D1*
X8196Y25405D1*
X8320Y25393D1*
X8472Y25345D1*
X8475Y25405D1*
X9905D1*
Y25260D1*
X10415Y25259D1*
X10418Y25633D1*
X11180D1*
X11178Y25641D1*
X12202Y25637D1*
X12178Y25641D1*
X12221D1*
X12110Y25784D1*
X12076Y25918D1*
X12075Y26655D1*
X11902Y26658D1*
X11178D1*
Y26750D1*
X10472Y26749D1*
Y26178D1*
X9408Y26182D1*
X9302Y26178D1*
X8739D1*
Y26729D1*
X8475Y26725D1*
Y26784D1*
X8313Y26736D1*
X8188Y26725D1*
X8064Y26736D1*
X7943Y26769D1*
X7830Y26822D1*
X7728Y26894D1*
X7640Y26983D1*
X7569Y27085D1*
X7517Y27199D1*
X7485Y27319D1*
X7475Y27444D1*
X7487Y27568D1*
X7520Y27688D1*
X7589Y27824D1*
X7290Y27825D1*
X7160Y27685D1*
X7036Y27611D1*
X6933Y27574D1*
X6766Y27549D1*
X6060Y27554D1*
X5874Y27596D1*
X5747Y27667D1*
X5664Y27737D1*
X5549Y27889D1*
X5497Y28025D1*
X5478Y28133D1*
X5488Y28323D1*
X5535Y28460D1*
X5590Y28555D1*
X5682Y28663D1*
X5686Y28714D1*
X5591Y28824D1*
X5536Y28919D1*
X5480Y29101D1*
X5478Y29246D1*
X5497Y29354D1*
X5571Y29529D1*
X5682Y29663D1*
X5686Y29714D1*
X5591Y29824D1*
X5536Y29919D1*
X5480Y30101D1*
X5478Y30246D1*
X5497Y30354D1*
X5571Y30529D1*
X5663Y30642D1*
X5746Y30712D1*
X5916Y30799D1*
X6061Y30826D1*
X6364Y30831D1*
X6820Y30826D1*
X7006Y30784D1*
X7133Y30713D1*
X7216Y30643D1*
X7291Y30554D1*
X7585Y30555D1*
X7517Y30699D1*
X7485Y30819D1*
X7475Y30944D1*
X7487Y31068D1*
X7520Y31188D1*
X7573Y31301D1*
X7645Y31403D1*
X7734Y31491D1*
X7837Y31562D1*
X7950Y31614D1*
X8071Y31645D1*
X8196Y31655D1*
X8320Y31643D1*
X8472Y31595D1*
X8475Y31655D1*
X9905D1*
Y31510D1*
X10415Y31509D1*
X10418Y31883D1*
X11180D1*
X11178Y31891D1*
X12202Y31887D1*
X12303Y31891D1*
X12952D1*
X12948Y30828D1*
X12952Y30722D1*
Y30158D1*
X12807D1*
X12805Y28842D1*
X13198Y28448D1*
X13270Y28346D1*
X13304Y28212D1*
X13305Y26342D1*
X13698Y25948D1*
X13770Y25846D1*
X13804Y25712D1*
X13805Y23092D1*
X14198Y22698D1*
X14270Y22596D1*
X14304Y22462D1*
X14305Y19342D1*
X14698Y18948D1*
X14770Y18846D1*
X14804Y18712D1*
X14805Y16842D1*
X14940Y16805D1*
X15788D1*
X15776Y16976D1*
X15794Y17099D1*
X15835Y17217D1*
X15898Y17325D1*
X16001Y17437D1*
X15931Y17513D1*
X15860Y17615D1*
X15809Y17730D1*
X15781Y17851D1*
X15776Y17976D1*
X15796Y18103D1*
X15682Y18182D1*
X15432Y18432D1*
X15360Y18534D1*
X15326Y18668D1*
X15325Y19190D1*
X15346Y19313D1*
X15417Y19432D1*
X16432Y20448D1*
X16534Y20520D1*
X16668Y20554D1*
X22038Y20555D1*
X22075Y20690D1*
Y20840D1*
X21967Y20932D1*
X21916Y20936D1*
X21806Y20841D1*
X21711Y20786D1*
X21529Y20730D1*
X21384Y20728D1*
X21276Y20747D1*
X21101Y20821D1*
X20988Y20913D1*
X20918Y20996D1*
X20831Y21166D1*
X20804Y21311D1*
X20799Y21614D1*
X20804Y22070D1*
X20846Y22256D1*
X20917Y22383D1*
X20987Y22466D1*
X21076Y22541D1*
X21060Y22554D1*
X20874Y22596D1*
X20747Y22667D1*
X20664Y22737D1*
X20549Y22889D1*
X20497Y23025D1*
X20478Y23133D1*
X20488Y23323D1*
X20535Y23460D1*
X20590Y23555D1*
X20682Y23663D1*
X20686Y23714D1*
X20591Y23824D1*
X20536Y23919D1*
X20480Y24101D1*
X20478Y24246D1*
X20497Y24354D1*
X20571Y24529D1*
X20706Y24695D1*
X20615Y24795D1*
X20550Y24887D1*
X20489Y25049D1*
X20478Y25133D1*
X20482Y25296D1*
X20522Y25424D1*
X20569Y25527D1*
X20680Y25660D1*
X20746Y25712D1*
X20890Y25790D1*
X21021Y25820D1*
X21139Y25831D1*
X21820Y25826D1*
X21980Y25794D1*
X22099Y25732D1*
X22193Y25668D1*
X22305Y25536D1*
X22344Y25461D1*
X22396Y25307D1*
X22402Y25172D1*
X22393Y25060D1*
X22335Y24897D1*
X22290Y24825D1*
X22183Y24703D1*
X22194Y24666D1*
X22289Y24556D1*
X22344Y24461D1*
X22400Y24279D1*
X22402Y24134D1*
X22383Y24026D1*
X22309Y23851D1*
X22198Y23717D1*
X22194Y23666D1*
X22289Y23556D1*
X22344Y23461D1*
X22400Y23279D1*
X22402Y23134D1*
X22383Y23026D1*
X22309Y22851D1*
X22217Y22738D1*
X22134Y22668D1*
X21964Y22581D1*
X21819Y22554D1*
X21805Y22540D1*
X21913Y22448D1*
X21964Y22444D1*
X22074Y22539D1*
X22169Y22594D1*
X22351Y22650D1*
X22496Y22652D1*
X22604Y22633D1*
X22779Y22559D1*
X22892Y22467D1*
X22962Y22384D1*
X23049Y22214D1*
X23076Y22069D1*
X23081Y21766D1*
X23076Y21310D1*
X23034Y21124D1*
X22963Y20997D1*
X22893Y20914D1*
X22804Y20839D1*
X22805Y20440D1*
X22784Y20317D1*
X22713Y20198D1*
X22448Y19932D1*
X22329Y19853D1*
X22367Y19779D1*
X22439Y19677D1*
X22474Y19542D1*
Y17704D1*
X22641Y17702D1*
Y17253D1*
X22698Y17198D1*
X22777Y17079D1*
X22810Y17001D1*
X23070D1*
Y16056D1*
X21810Y16060D1*
X21695Y16056D1*
X20810D1*
Y17001D1*
X20908D1*
Y17702D1*
X21746D1*
X21744Y19327D1*
X19975Y19325D1*
X20040Y19210D1*
X20080Y19092D1*
X20097Y18968D1*
X20090Y18840D1*
X20059Y18719D1*
X20007Y18606D1*
X19935Y18504D1*
X19870Y18440D1*
X19964Y18339D1*
X19986Y18303D1*
X20190Y18305D1*
X20313Y18284D1*
X20432Y18213D1*
X20698Y17948D1*
X20770Y17846D1*
X20804Y17712D1*
X20805Y14999D1*
X20810Y15468D1*
Y15662D1*
X22070Y15659D1*
X22185Y15662D1*
X23070D1*
Y14718D1*
X22808D1*
X22805Y14190D1*
Y13842D1*
X22925Y13721D1*
X9487Y7905D2*
X9905D1*
Y7760D1*
X10415Y7759D1*
X10418Y8133D1*
X11180D1*
X11178Y8141D1*
X12202Y8137D1*
X12210Y8154D1*
X12110Y8284D1*
X12076Y8418D1*
X12075Y9905D1*
X11902Y9908D1*
X11178D1*
Y10000D1*
X10472Y9999D1*
Y9428D1*
X9408Y9432D1*
X9302Y9428D1*
X8739D1*
Y9573D1*
X7290Y9575D1*
X7198Y9467D1*
X7194Y9416D1*
X7289Y9306D1*
X7344Y9211D1*
X7400Y9029D1*
X7402Y8884D1*
X7383Y8776D1*
X7309Y8601D1*
X7198Y8467D1*
X7194Y8416D1*
X7291Y8304D1*
X8940Y8305D1*
X9063Y8284D1*
X9182Y8213D1*
X9461Y7934D1*
X9487Y14905D2*
X9905D1*
Y14760D1*
X10415Y14759D1*
X10418Y15133D1*
X11180D1*
X11178Y15141D1*
X12202Y15137D1*
X12303Y15141D1*
X12471D1*
X12182Y15432D1*
X12110Y15534D1*
X12076Y15668D1*
X12075Y16905D1*
X11902Y16908D1*
X11178D1*
Y17000D1*
X10472Y16999D1*
Y16428D1*
X9408Y16432D1*
X9302Y16428D1*
X8739D1*
Y16573D1*
X7290Y16575D1*
X7198Y16467D1*
X7194Y16416D1*
X7289Y16306D1*
X7344Y16211D1*
X7400Y16029D1*
X7402Y15884D1*
X7383Y15776D1*
X7309Y15601D1*
X7198Y15467D1*
X7194Y15416D1*
X7291Y15304D1*
X8940Y15305D1*
X9063Y15284D1*
X9182Y15213D1*
X9461Y14934D1*
X9487Y21905D2*
X9905D1*
Y21760D1*
X10415Y21759D1*
X10418Y22133D1*
X11180D1*
X11178Y22141D1*
X12202Y22137D1*
X12178Y22141D1*
X12221D1*
X12110Y22284D1*
X12076Y22418D1*
X12075Y23905D1*
X11902Y23908D1*
X11178D1*
Y24000D1*
X10472Y23999D1*
Y23428D1*
X9408Y23432D1*
X9302Y23428D1*
X8739D1*
Y23573D1*
X7290Y23575D1*
X7198Y23467D1*
X7194Y23416D1*
X7289Y23306D1*
X7344Y23211D1*
X7400Y23029D1*
X7402Y22884D1*
X7383Y22776D1*
X7309Y22601D1*
X7198Y22467D1*
X7194Y22416D1*
X7291Y22304D1*
X8940Y22305D1*
X9063Y22284D1*
X9182Y22213D1*
X9461Y21934D1*
X9487Y28155D2*
X9905D1*
Y28010D1*
X10415Y28009D1*
X10418Y28383D1*
X11180D1*
X11178Y28391D1*
X12202Y28387D1*
X12178Y28391D1*
X12221D1*
X12110Y28534D1*
X12076Y28668D1*
X12075Y30155D1*
X11902Y30158D1*
X11178D1*
Y30250D1*
X10472Y30249D1*
Y29678D1*
X9408Y29682D1*
X9302Y29678D1*
X8739D1*
Y29823D1*
X7290Y29825D1*
X7198Y29717D1*
X7194Y29666D1*
X7289Y29556D1*
X7344Y29461D1*
X7400Y29279D1*
X7402Y29134D1*
X7383Y29026D1*
X7309Y28851D1*
X7198Y28717D1*
X7194Y28666D1*
X7291Y28554D1*
X8940Y28555D1*
X9063Y28534D1*
X9182Y28463D1*
X9461Y28184D1*
X12952Y13410D2*
X12807Y13408D1*
X12805Y12092D1*
X13198Y11698D1*
X13270Y11596D1*
X13304Y11462D1*
X13305Y8592D1*
X13593Y8303D1*
X16538Y8305D1*
X17827Y9593D1*
X17825Y9811D1*
X17698Y9682D1*
X17596Y9610D1*
X17462Y9576D1*
X16999Y9575D1*
X16926Y9486D1*
X16832Y9403D1*
X16725Y9339D1*
X16608Y9297D1*
X16485Y9276D1*
X16360Y9280D1*
X16238Y9306D1*
X16123Y9355D1*
X16019Y9425D1*
X15931Y9513D1*
X15860Y9615D1*
X15809Y9730D1*
X15781Y9851D1*
X15776Y9976D1*
X15794Y10099D1*
X15835Y10217D1*
X15898Y10325D1*
X16001Y10437D1*
X15931Y10513D1*
X15860Y10615D1*
X15809Y10730D1*
X15781Y10851D1*
X15776Y10976D1*
X15794Y11099D1*
X15835Y11217D1*
X15898Y11325D1*
X16001Y11437D1*
X15931Y11513D1*
X15860Y11615D1*
X15809Y11730D1*
X15781Y11851D1*
X15776Y11976D1*
X15794Y12099D1*
X15835Y12217D1*
X15898Y12325D1*
X16001Y12437D1*
X15888Y12574D1*
X13940Y12575D1*
X13817Y12596D1*
X13698Y12667D1*
X12950Y13414D1*
X20062Y31869D2*
X20095Y32003D1*
X20180Y32154D1*
X20237Y32216D1*
X20365Y32318D1*
X20489Y32370D1*
X20598Y32400D1*
X20771Y32401D1*
X20854Y32383D1*
X21006Y32324D1*
X21113Y32242D1*
X21177Y32183D1*
X21214Y32194D1*
X21324Y32289D1*
X21419Y32344D1*
X21601Y32400D1*
X21746Y32402D1*
X21854Y32383D1*
X22029Y32309D1*
X22163Y32198D1*
X22214Y32194D1*
X22324Y32289D1*
X22419Y32344D1*
X22601Y32400D1*
X22746Y32402D1*
X22854Y32383D1*
X23029Y32309D1*
X23142Y32217D1*
X23212Y32134D1*
X23299Y31964D1*
X23326Y31819D1*
X23331Y31516D1*
X23326Y31060D1*
X23284Y30874D1*
X23213Y30747D1*
X23143Y30664D1*
X22991Y30549D1*
X22855Y30497D1*
X22747Y30478D1*
X22557Y30488D1*
X22420Y30535D1*
X22325Y30590D1*
X22217Y30682D1*
X22166Y30686D1*
X22056Y30591D1*
X21961Y30536D1*
X21779Y30480D1*
X21634Y30478D1*
X21526Y30497D1*
X21351Y30571D1*
X21185Y30706D1*
X21085Y30615D1*
X20993Y30550D1*
X20831Y30489D1*
X20747Y30478D1*
X20584Y30482D1*
X20456Y30522D1*
X20353Y30569D1*
X20220Y30680D1*
X20168Y30746D1*
X20090Y30890D1*
X20060Y31021D1*
X20049Y31139D1*
X20054Y31820D1*
X20062Y31869D1*
X16062D2*
X16095Y32003D1*
X16180Y32154D1*
X16237Y32216D1*
X16365Y32318D1*
X16489Y32370D1*
X16598Y32400D1*
X16771Y32401D1*
X16854Y32383D1*
X17006Y32324D1*
X17113Y32242D1*
X17177Y32183D1*
X17214Y32194D1*
X17324Y32289D1*
X17419Y32344D1*
X17601Y32400D1*
X17746Y32402D1*
X17854Y32383D1*
X18029Y32309D1*
X18163Y32198D1*
X18214Y32194D1*
X18324Y32289D1*
X18419Y32344D1*
X18601Y32400D1*
X18746Y32402D1*
X18854Y32383D1*
X19029Y32309D1*
X19142Y32217D1*
X19212Y32134D1*
X19299Y31964D1*
X19326Y31819D1*
X19331Y31516D1*
X19326Y31060D1*
X19284Y30874D1*
X19213Y30747D1*
X19143Y30664D1*
X18991Y30549D1*
X18855Y30497D1*
X18747Y30478D1*
X18557Y30488D1*
X18420Y30535D1*
X18325Y30590D1*
X18217Y30682D1*
X18166Y30686D1*
X18056Y30591D1*
X17961Y30536D1*
X17779Y30480D1*
X17634Y30478D1*
X17526Y30497D1*
X17351Y30571D1*
X17185Y30706D1*
X17085Y30615D1*
X16993Y30550D1*
X16831Y30489D1*
X16747Y30478D1*
X16584Y30482D1*
X16456Y30522D1*
X16353Y30569D1*
X16220Y30680D1*
X16168Y30746D1*
X16090Y30890D1*
X16060Y31021D1*
X16049Y31139D1*
X16054Y31820D1*
X16062Y31869D1*
X21845Y29822D2*
X21980Y29794D1*
X22099Y29732D1*
X22193Y29668D1*
X22305Y29536D1*
X22344Y29461D1*
X22396Y29307D1*
X22402Y29172D1*
X22393Y29060D1*
X22335Y28897D1*
X22290Y28825D1*
X22183Y28703D1*
X22194Y28666D1*
X22289Y28556D1*
X22344Y28461D1*
X22400Y28279D1*
X22402Y28134D1*
X22383Y28026D1*
X22309Y27851D1*
X22198Y27717D1*
X22194Y27666D1*
X22289Y27556D1*
X22344Y27461D1*
X22400Y27279D1*
X22402Y27134D1*
X22383Y27026D1*
X22309Y26851D1*
X22217Y26738D1*
X22134Y26668D1*
X21964Y26581D1*
X21819Y26554D1*
X21516Y26549D1*
X21060Y26554D1*
X20874Y26596D1*
X20747Y26667D1*
X20664Y26737D1*
X20549Y26889D1*
X20497Y27025D1*
X20478Y27133D1*
X20488Y27323D1*
X20535Y27460D1*
X20590Y27555D1*
X20682Y27663D1*
X20686Y27714D1*
X20591Y27824D1*
X20536Y27919D1*
X20480Y28101D1*
X20478Y28246D1*
X20497Y28354D1*
X20571Y28529D1*
X20706Y28695D1*
X20615Y28795D1*
X20550Y28887D1*
X20489Y29049D1*
X20478Y29133D1*
X20482Y29296D1*
X20522Y29424D1*
X20569Y29527D1*
X20680Y29660D1*
X20746Y29712D1*
X20890Y29790D1*
X21021Y29820D1*
X21139Y29831D1*
X21820Y29826D1*
X21845Y29822D1*
X17050Y19328D2*
Y18804D1*
X17690Y18805D1*
X17813Y18784D1*
X17932Y18713D1*
X18198Y18448D1*
X18270Y18346D1*
X18304Y18212D1*
X18305Y13069D1*
X18432Y13198D1*
X18534Y13270D1*
X18668Y13304D1*
X18874Y13305D1*
X18993Y13437D1*
X18923Y13513D1*
X18852Y13615D1*
X18801Y13730D1*
X18773Y13851D1*
X18768Y13976D1*
X18786Y14099D1*
X18828Y14217D1*
X18890Y14325D1*
X18993Y14437D1*
X18923Y14513D1*
X18852Y14615D1*
X18801Y14730D1*
X18773Y14851D1*
X18768Y14976D1*
X18786Y15099D1*
X18828Y15217D1*
X18890Y15325D1*
X18993Y15437D1*
X18923Y15513D1*
X18852Y15615D1*
X18801Y15730D1*
X18773Y15851D1*
X18768Y15976D1*
X18786Y16099D1*
X18828Y16217D1*
X18890Y16325D1*
X18993Y16437D1*
X18923Y16513D1*
X18852Y16615D1*
X18801Y16730D1*
X18773Y16851D1*
X18768Y16976D1*
X18786Y17099D1*
X18828Y17217D1*
X18890Y17325D1*
X18993Y17437D1*
X18923Y17513D1*
X18852Y17615D1*
X18801Y17730D1*
X18773Y17851D1*
X18768Y17976D1*
X18786Y18099D1*
X18828Y18217D1*
X18890Y18325D1*
X18993Y18437D1*
X18907Y18532D1*
X18840Y18637D1*
X18794Y18753D1*
X18770Y18876D1*
Y19001D1*
X18793Y19123D1*
X18838Y19240D1*
X18890Y19325D1*
X17053D1*
X17093Y17816D2*
X17059Y17696D1*
X17002Y17585D1*
X16926Y17486D1*
X16876Y17442D1*
X16972Y17339D1*
X17037Y17233D1*
X17081Y17116D1*
X17105Y16940D1*
X17090Y16805D1*
X17440D1*
X17566Y16782D1*
X17575Y16815D1*
Y18038D1*
X17440Y18075D1*
X17092D1*
X17105Y17940D1*
X17093Y17816D1*
Y15816D2*
X17081Y15775D1*
X17198Y15698D1*
X17322Y15574D1*
X17325Y16038D1*
X17190Y16075D1*
X17092D1*
X17105Y15940D1*
X17093Y15816D1*
X15792Y15802D2*
X15781Y15851D1*
X15776Y15976D1*
X15790Y16072D1*
X14690Y16075D1*
X14550Y16104D1*
X14640Y16006D1*
X14842Y15805D1*
X15788D1*
X16005Y14439D2*
X15931Y14513D1*
X15888Y14574D1*
X14190Y14575D1*
X14067Y14596D1*
X13948Y14667D1*
X13808Y14806D1*
X13805Y14342D1*
X13940Y14305D1*
X15881D1*
X16001Y14437D1*
X16005Y13439D2*
X15931Y13513D1*
X15888Y13574D1*
X13819Y13575D1*
X14090Y13306D1*
X15881Y13305D1*
X16001Y13437D1*
X17000Y11581D2*
X16926Y11486D1*
X16876Y11442D1*
X16972Y11339D1*
X16994Y11303D1*
X17288Y11305D1*
X17325Y11440D1*
Y11811D1*
X17198Y11682D1*
X17079Y11603D1*
X16995Y10575D2*
X16926Y10486D1*
X16876Y10442D1*
X16972Y10339D1*
X16994Y10303D1*
X17288Y10305D1*
X17577Y10593D1*
X17440Y10575D1*
X16999D1*
X23440Y33565D2*
X4315D1*
Y4315D1*
X23565D1*
Y33565D1*
X23440D1*
X22690Y12521D2*
D18*
Y11990D1*
Y12521D2*
X23201D1*
X10940Y6942D2*
Y6500D1*
Y13942D2*
Y13500D1*
Y10442D2*
Y10000D1*
Y17442D2*
Y17000D1*
Y27192D2*
Y26750D1*
Y30692D2*
Y30250D1*
Y20942D2*
Y20500D1*
Y24442D2*
Y24000D1*
X11690Y6940D2*
Y6409D1*
Y13940D2*
Y13409D1*
Y10440D2*
Y9909D1*
Y17440D2*
Y16909D1*
Y27190D2*
Y26659D1*
Y30690D2*
Y30159D1*
Y20940D2*
Y20409D1*
Y24440D2*
Y23909D1*
X20690Y32402D2*
Y30478D1*
X20049Y31440D2*
X20690D1*
X16690Y32402D2*
Y30478D1*
X16049Y31440D2*
X16690D1*
X21440Y29831D2*
Y29190D1*
X20478D2*
X22402D1*
X21440Y25831D2*
Y25190D1*
X20478D2*
X22402D1*
X18768Y18940D2*
X20097D1*
D21*
X22690Y13190D3*
Y12521D3*
D24*
X22440Y15190D3*
Y16529D3*
X21440Y15190D3*
Y16529D3*
D25*
X8190Y7190D3*
D26*
X9190D3*
D25*
X8190Y10690D3*
D26*
X9190D3*
D25*
X8190Y14190D3*
D26*
X9190D3*
D25*
X8190Y17690D3*
D26*
X9190D3*
D25*
X8190Y21190D3*
D26*
X9190D3*
D25*
X8190Y24690D3*
D26*
X9190D3*
D25*
X8190Y27440D3*
D26*
X9190D3*
D25*
X8190Y30940D3*
D26*
X9190D3*
D28*
X10940Y7690D3*
Y6942D3*
X10034Y7316D3*
X10940Y14690D3*
Y13942D3*
X10034Y14316D3*
X10940Y11190D3*
Y10442D3*
X10034Y10816D3*
X10940Y18190D3*
Y17442D3*
X10034Y17816D3*
X10940Y27940D3*
Y27192D3*
X10034Y27566D3*
X10940Y31440D3*
Y30692D3*
X10034Y31066D3*
X10940Y21690D3*
Y20942D3*
X10034Y21316D3*
X10940Y25190D3*
Y24442D3*
X10034Y24816D3*
D22*
X21440Y17190D3*
X22109D3*
X9940Y6440D3*
X9271D3*
X9940Y13440D3*
X9271D3*
X9940Y9940D3*
X9271D3*
X9940Y16940D3*
X9271D3*
D21*
X12440Y6940D3*
Y7609D3*
Y13940D3*
Y14609D3*
Y10440D3*
Y11109D3*
Y17440D3*
Y18109D3*
X11690Y6940D3*
Y7609D3*
Y13940D3*
Y14609D3*
Y10440D3*
Y11109D3*
Y17440D3*
Y18109D3*
D22*
X9940Y26690D3*
X9271D3*
X9940Y30190D3*
X9271D3*
X9940Y20440D3*
X9271D3*
D21*
X12440Y27190D3*
Y27859D3*
D22*
X9940Y23940D3*
X9271D3*
D21*
X12440Y30690D3*
Y31359D3*
X11690Y27190D3*
Y27859D3*
X12440Y20940D3*
Y21609D3*
X11690Y30690D3*
Y31359D3*
X12440Y24440D3*
Y25109D3*
X11690Y20940D3*
Y21609D3*
Y24440D3*
Y25109D3*
G36*
X20364Y31766D2*
X20384Y31877D1*
X20440Y31975D1*
X20527Y32048D1*
X20633Y32087D1*
X20746D1*
X20853Y32048D1*
X20940Y31976D1*
X20996Y31878D1*
X21016Y31766D1*
Y31114D1*
X20996Y31003D1*
X20940Y30905D1*
X20853Y30832D1*
X20747Y30793D1*
X20634D1*
X20527Y30832D1*
X20440Y30904D1*
X20384Y31002D1*
X20364Y31114D1*
Y31766D1*
G37*
G36*
X21364D2*
X21384Y31877D1*
X21440Y31975D1*
X21527Y32048D1*
X21633Y32087D1*
X21746D1*
X21853Y32048D1*
X21940Y31976D1*
X21996Y31878D1*
X22016Y31766D1*
Y31114D1*
X21996Y31003D1*
X21940Y30905D1*
X21853Y30832D1*
X21747Y30793D1*
X21634D1*
X21527Y30832D1*
X21440Y30904D1*
X21384Y31002D1*
X21364Y31114D1*
Y31766D1*
G37*
G36*
X22364D2*
X22384Y31877D1*
X22440Y31975D1*
X22527Y32048D1*
X22633Y32087D1*
X22746D1*
X22853Y32048D1*
X22940Y31976D1*
X22996Y31878D1*
X23016Y31766D1*
Y31114D1*
X22996Y31003D1*
X22940Y30905D1*
X22853Y30832D1*
X22747Y30793D1*
X22634D1*
X22527Y30832D1*
X22440Y30904D1*
X22384Y31002D1*
X22364Y31114D1*
Y31766D1*
G37*
G36*
X16364D2*
X16384Y31877D1*
X16440Y31975D1*
X16527Y32048D1*
X16633Y32087D1*
X16746D1*
X16853Y32048D1*
X16940Y31976D1*
X16996Y31878D1*
X17016Y31766D1*
Y31114D1*
X16996Y31003D1*
X16940Y30905D1*
X16853Y30832D1*
X16747Y30793D1*
X16634D1*
X16527Y30832D1*
X16440Y30904D1*
X16384Y31002D1*
X16364Y31114D1*
Y31766D1*
G37*
G36*
X17364D2*
X17384Y31877D1*
X17440Y31975D1*
X17527Y32048D1*
X17633Y32087D1*
X17746D1*
X17853Y32048D1*
X17940Y31976D1*
X17996Y31878D1*
X18016Y31766D1*
Y31114D1*
X17996Y31003D1*
X17940Y30905D1*
X17853Y30832D1*
X17747Y30793D1*
X17634D1*
X17527Y30832D1*
X17440Y30904D1*
X17384Y31002D1*
X17364Y31114D1*
Y31766D1*
G37*
G36*
X18364D2*
X18384Y31877D1*
X18440Y31975D1*
X18527Y32048D1*
X18633Y32087D1*
X18746D1*
X18853Y32048D1*
X18940Y31976D1*
X18996Y31878D1*
X19016Y31766D1*
Y31114D1*
X18996Y31003D1*
X18940Y30905D1*
X18853Y30832D1*
X18747Y30793D1*
X18634D1*
X18527Y30832D1*
X18440Y30904D1*
X18384Y31002D1*
X18364Y31114D1*
Y31766D1*
G37*
G36*
X19114Y4864D2*
X19003Y4884D1*
X18905Y4940D1*
X18832Y5027D1*
X18793Y5133D1*
Y5246D1*
X18832Y5353D1*
X18904Y5440D1*
X19002Y5496D1*
X19114Y5516D1*
X19766D1*
X19877Y5496D1*
X19975Y5440D1*
X20048Y5353D1*
X20087Y5247D1*
Y5134D1*
X20048Y5027D1*
X19976Y4940D1*
X19878Y4884D1*
X19766Y4864D1*
X19114D1*
G37*
G36*
Y5864D2*
X19003Y5884D1*
X18905Y5940D1*
X18832Y6027D1*
X18793Y6133D1*
Y6246D1*
X18832Y6353D1*
X18904Y6440D1*
X19002Y6496D1*
X19114Y6516D1*
X19766D1*
X19877Y6496D1*
X19975Y6440D1*
X20048Y6353D1*
X20087Y6247D1*
Y6134D1*
X20048Y6027D1*
X19976Y5940D1*
X19878Y5884D1*
X19766Y5864D1*
X19114D1*
G37*
G36*
X18266Y6516D2*
X18377Y6496D1*
X18475Y6440D1*
X18548Y6353D1*
X18587Y6247D1*
Y6134D1*
X18548Y6027D1*
X18476Y5940D1*
X18378Y5884D1*
X18266Y5864D1*
X17614D1*
X17503Y5884D1*
X17405Y5940D1*
X17332Y6027D1*
X17293Y6133D1*
Y6246D1*
X17332Y6353D1*
X17404Y6440D1*
X17502Y6496D1*
X17614Y6516D1*
X18266D1*
G37*
G36*
Y5516D2*
X18377Y5496D1*
X18475Y5440D1*
X18548Y5353D1*
X18587Y5247D1*
Y5134D1*
X18548Y5027D1*
X18476Y4940D1*
X18378Y4884D1*
X18266Y4864D1*
X17614D1*
X17503Y4884D1*
X17405Y4940D1*
X17332Y5027D1*
X17293Y5133D1*
Y5246D1*
X17332Y5353D1*
X17404Y5440D1*
X17502Y5496D1*
X17614Y5516D1*
X18266D1*
G37*
G36*
X21766Y29516D2*
X21877Y29496D1*
X21975Y29440D1*
X22048Y29353D1*
X22087Y29247D1*
Y29134D1*
X22048Y29027D1*
X21976Y28940D1*
X21878Y28884D1*
X21766Y28864D1*
X21114D1*
X21003Y28884D1*
X20905Y28940D1*
X20832Y29027D1*
X20793Y29133D1*
Y29246D1*
X20832Y29353D1*
X20904Y29440D1*
X21002Y29496D1*
X21114Y29516D1*
X21766D1*
G37*
G36*
Y28516D2*
X21877Y28496D1*
X21975Y28440D1*
X22048Y28353D1*
X22087Y28247D1*
Y28134D1*
X22048Y28027D1*
X21976Y27940D1*
X21878Y27884D1*
X21766Y27864D1*
X21114D1*
X21003Y27884D1*
X20905Y27940D1*
X20832Y28027D1*
X20793Y28133D1*
Y28246D1*
X20832Y28353D1*
X20904Y28440D1*
X21002Y28496D1*
X21114Y28516D1*
X21766D1*
G37*
G36*
Y27516D2*
X21877Y27496D1*
X21975Y27440D1*
X22048Y27353D1*
X22087Y27247D1*
Y27134D1*
X22048Y27027D1*
X21976Y26940D1*
X21878Y26884D1*
X21766Y26864D1*
X21114D1*
X21003Y26884D1*
X20905Y26940D1*
X20832Y27027D1*
X20793Y27133D1*
Y27246D1*
X20832Y27353D1*
X20904Y27440D1*
X21002Y27496D1*
X21114Y27516D1*
X21766D1*
G37*
G36*
X22766Y21364D2*
X22746Y21253D1*
X22690Y21155D1*
X22603Y21082D1*
X22497Y21043D1*
X22384D1*
X22277Y21082D1*
X22190Y21154D1*
X22134Y21252D1*
X22114Y21364D1*
Y22016D1*
X22134Y22127D1*
X22190Y22225D1*
X22277Y22298D1*
X22383Y22337D1*
X22496D1*
X22603Y22298D1*
X22690Y22226D1*
X22746Y22128D1*
X22766Y22016D1*
Y21364D1*
G37*
G36*
X21766D2*
X21746Y21253D1*
X21690Y21155D1*
X21603Y21082D1*
X21497Y21043D1*
X21384D1*
X21277Y21082D1*
X21190Y21154D1*
X21134Y21252D1*
X21114Y21364D1*
Y22016D1*
X21134Y22127D1*
X21190Y22225D1*
X21277Y22298D1*
X21383Y22337D1*
X21496D1*
X21603Y22298D1*
X21690Y22226D1*
X21746Y22128D1*
X21766Y22016D1*
Y21364D1*
G37*
G36*
Y25516D2*
X21877Y25496D1*
X21975Y25440D1*
X22048Y25353D1*
X22087Y25247D1*
Y25134D1*
X22048Y25027D1*
X21976Y24940D1*
X21878Y24884D1*
X21766Y24864D1*
X21114D1*
X21003Y24884D1*
X20905Y24940D1*
X20832Y25027D1*
X20793Y25133D1*
Y25246D1*
X20832Y25353D1*
X20904Y25440D1*
X21002Y25496D1*
X21114Y25516D1*
X21766D1*
G37*
G36*
Y24516D2*
X21877Y24496D1*
X21975Y24440D1*
X22048Y24353D1*
X22087Y24247D1*
Y24134D1*
X22048Y24027D1*
X21976Y23940D1*
X21878Y23884D1*
X21766Y23864D1*
X21114D1*
X21003Y23884D1*
X20905Y23940D1*
X20832Y24027D1*
X20793Y24133D1*
Y24246D1*
X20832Y24353D1*
X20904Y24440D1*
X21002Y24496D1*
X21114Y24516D1*
X21766D1*
G37*
G36*
Y23516D2*
X21877Y23496D1*
X21975Y23440D1*
X22048Y23353D1*
X22087Y23247D1*
Y23134D1*
X22048Y23027D1*
X21976Y22940D1*
X21878Y22884D1*
X21766Y22864D1*
X21114D1*
X21003Y22884D1*
X20905Y22940D1*
X20832Y23027D1*
X20793Y23133D1*
Y23246D1*
X20832Y23353D1*
X20904Y23440D1*
X21002Y23496D1*
X21114Y23516D1*
X21766D1*
G37*
D31*
X16440Y18940D3*
D32*
Y17940D3*
Y16940D3*
Y15940D3*
Y14940D3*
Y13940D3*
Y12940D3*
Y11940D3*
Y10940D3*
Y9940D3*
X19432Y18940D3*
Y17940D3*
Y16940D3*
Y15940D3*
Y14940D3*
Y13940D3*
Y12940D3*
Y11940D3*
Y10940D3*
Y9940D3*
G36*
X21766Y14766D2*
X21877Y14746D1*
X21975Y14690D1*
X22048Y14603D1*
X22087Y14497D1*
Y14384D1*
X22048Y14277D1*
X21976Y14190D1*
X21878Y14134D1*
X21766Y14114D1*
X21114D1*
X21003Y14134D1*
X20905Y14190D1*
X20832Y14277D1*
X20793Y14383D1*
Y14496D1*
X20832Y14603D1*
X20904Y14690D1*
X21002Y14746D1*
X21114Y14766D1*
X21766D1*
G37*
G36*
Y13766D2*
X21877Y13746D1*
X21975Y13690D1*
X22048Y13603D1*
X22087Y13497D1*
Y13384D1*
X22048Y13277D1*
X21976Y13190D1*
X21878Y13134D1*
X21766Y13114D1*
X21114D1*
X21003Y13134D1*
X20905Y13190D1*
X20832Y13277D1*
X20793Y13383D1*
Y13496D1*
X20832Y13603D1*
X20904Y13690D1*
X21002Y13746D1*
X21114Y13766D1*
X21766D1*
G37*
G36*
Y12766D2*
X21877Y12746D1*
X21975Y12690D1*
X22048Y12603D1*
X22087Y12497D1*
Y12384D1*
X22048Y12277D1*
X21976Y12190D1*
X21878Y12134D1*
X21766Y12114D1*
X21114D1*
X21003Y12134D1*
X20905Y12190D1*
X20832Y12277D1*
X20793Y12383D1*
Y12496D1*
X20832Y12603D1*
X20904Y12690D1*
X21002Y12746D1*
X21114Y12766D1*
X21766D1*
G37*
G36*
Y11766D2*
X21877Y11746D1*
X21975Y11690D1*
X22048Y11603D1*
X22087Y11497D1*
Y11384D1*
X22048Y11277D1*
X21976Y11190D1*
X21878Y11134D1*
X21766Y11114D1*
X21114D1*
X21003Y11134D1*
X20905Y11190D1*
X20832Y11277D1*
X20793Y11383D1*
Y11496D1*
X20832Y11603D1*
X20904Y11690D1*
X21002Y11746D1*
X21114Y11766D1*
X21766D1*
G37*
G36*
Y10766D2*
X21877Y10746D1*
X21975Y10690D1*
X22048Y10603D1*
X22087Y10497D1*
Y10384D1*
X22048Y10277D1*
X21976Y10190D1*
X21878Y10134D1*
X21766Y10114D1*
X21114D1*
X21003Y10134D1*
X20905Y10190D1*
X20832Y10277D1*
X20793Y10383D1*
Y10496D1*
X20832Y10603D1*
X20904Y10690D1*
X21002Y10746D1*
X21114Y10766D1*
X21766D1*
G37*
G36*
Y9766D2*
X21877Y9746D1*
X21975Y9690D1*
X22048Y9603D1*
X22087Y9497D1*
Y9384D1*
X22048Y9277D1*
X21976Y9190D1*
X21878Y9134D1*
X21766Y9114D1*
X21114D1*
X21003Y9134D1*
X20905Y9190D1*
X20832Y9277D1*
X20793Y9383D1*
Y9496D1*
X20832Y9603D1*
X20904Y9690D1*
X21002Y9746D1*
X21114Y9766D1*
X21766D1*
G37*
G36*
X6114Y7614D2*
X6003Y7634D1*
X5905Y7690D1*
X5832Y7777D1*
X5793Y7883D1*
Y7996D1*
X5832Y8103D1*
X5904Y8190D1*
X6002Y8246D1*
X6114Y8266D1*
X6766D1*
X6877Y8246D1*
X6975Y8190D1*
X7048Y8103D1*
X7087Y7997D1*
Y7884D1*
X7048Y7777D1*
X6976Y7690D1*
X6878Y7634D1*
X6766Y7614D1*
X6114D1*
G37*
G36*
Y8614D2*
X6003Y8634D1*
X5905Y8690D1*
X5832Y8777D1*
X5793Y8883D1*
Y8996D1*
X5832Y9103D1*
X5904Y9190D1*
X6002Y9246D1*
X6114Y9266D1*
X6766D1*
X6877Y9246D1*
X6975Y9190D1*
X7048Y9103D1*
X7087Y8997D1*
Y8884D1*
X7048Y8777D1*
X6976Y8690D1*
X6878Y8634D1*
X6766Y8614D1*
X6114D1*
G37*
G36*
Y9614D2*
X6003Y9634D1*
X5905Y9690D1*
X5832Y9777D1*
X5793Y9883D1*
Y9996D1*
X5832Y10103D1*
X5904Y10190D1*
X6002Y10246D1*
X6114Y10266D1*
X6766D1*
X6877Y10246D1*
X6975Y10190D1*
X7048Y10103D1*
X7087Y9997D1*
Y9884D1*
X7048Y9777D1*
X6976Y9690D1*
X6878Y9634D1*
X6766Y9614D1*
X6114D1*
G37*
G36*
Y14614D2*
X6003Y14634D1*
X5905Y14690D1*
X5832Y14777D1*
X5793Y14883D1*
Y14996D1*
X5832Y15103D1*
X5904Y15190D1*
X6002Y15246D1*
X6114Y15266D1*
X6766D1*
X6877Y15246D1*
X6975Y15190D1*
X7048Y15103D1*
X7087Y14997D1*
Y14884D1*
X7048Y14777D1*
X6976Y14690D1*
X6878Y14634D1*
X6766Y14614D1*
X6114D1*
G37*
G36*
Y15614D2*
X6003Y15634D1*
X5905Y15690D1*
X5832Y15777D1*
X5793Y15883D1*
Y15996D1*
X5832Y16103D1*
X5904Y16190D1*
X6002Y16246D1*
X6114Y16266D1*
X6766D1*
X6877Y16246D1*
X6975Y16190D1*
X7048Y16103D1*
X7087Y15997D1*
Y15884D1*
X7048Y15777D1*
X6976Y15690D1*
X6878Y15634D1*
X6766Y15614D1*
X6114D1*
G37*
G36*
Y16614D2*
X6003Y16634D1*
X5905Y16690D1*
X5832Y16777D1*
X5793Y16883D1*
Y16996D1*
X5832Y17103D1*
X5904Y17190D1*
X6002Y17246D1*
X6114Y17266D1*
X6766D1*
X6877Y17246D1*
X6975Y17190D1*
X7048Y17103D1*
X7087Y16997D1*
Y16884D1*
X7048Y16777D1*
X6976Y16690D1*
X6878Y16634D1*
X6766Y16614D1*
X6114D1*
G37*
G36*
Y21614D2*
X6003Y21634D1*
X5905Y21690D1*
X5832Y21777D1*
X5793Y21883D1*
Y21996D1*
X5832Y22103D1*
X5904Y22190D1*
X6002Y22246D1*
X6114Y22266D1*
X6766D1*
X6877Y22246D1*
X6975Y22190D1*
X7048Y22103D1*
X7087Y21997D1*
Y21884D1*
X7048Y21777D1*
X6976Y21690D1*
X6878Y21634D1*
X6766Y21614D1*
X6114D1*
G37*
G36*
Y22614D2*
X6003Y22634D1*
X5905Y22690D1*
X5832Y22777D1*
X5793Y22883D1*
Y22996D1*
X5832Y23103D1*
X5904Y23190D1*
X6002Y23246D1*
X6114Y23266D1*
X6766D1*
X6877Y23246D1*
X6975Y23190D1*
X7048Y23103D1*
X7087Y22997D1*
Y22884D1*
X7048Y22777D1*
X6976Y22690D1*
X6878Y22634D1*
X6766Y22614D1*
X6114D1*
G37*
G36*
Y23614D2*
X6003Y23634D1*
X5905Y23690D1*
X5832Y23777D1*
X5793Y23883D1*
Y23996D1*
X5832Y24103D1*
X5904Y24190D1*
X6002Y24246D1*
X6114Y24266D1*
X6766D1*
X6877Y24246D1*
X6975Y24190D1*
X7048Y24103D1*
X7087Y23997D1*
Y23884D1*
X7048Y23777D1*
X6976Y23690D1*
X6878Y23634D1*
X6766Y23614D1*
X6114D1*
G37*
G36*
Y27864D2*
X6003Y27884D1*
X5905Y27940D1*
X5832Y28027D1*
X5793Y28133D1*
Y28246D1*
X5832Y28353D1*
X5904Y28440D1*
X6002Y28496D1*
X6114Y28516D1*
X6766D1*
X6877Y28496D1*
X6975Y28440D1*
X7048Y28353D1*
X7087Y28247D1*
Y28134D1*
X7048Y28027D1*
X6976Y27940D1*
X6878Y27884D1*
X6766Y27864D1*
X6114D1*
G37*
G36*
Y28864D2*
X6003Y28884D1*
X5905Y28940D1*
X5832Y29027D1*
X5793Y29133D1*
Y29246D1*
X5832Y29353D1*
X5904Y29440D1*
X6002Y29496D1*
X6114Y29516D1*
X6766D1*
X6877Y29496D1*
X6975Y29440D1*
X7048Y29353D1*
X7087Y29247D1*
Y29134D1*
X7048Y29027D1*
X6976Y28940D1*
X6878Y28884D1*
X6766Y28864D1*
X6114D1*
G37*
G36*
Y29864D2*
X6003Y29884D1*
X5905Y29940D1*
X5832Y30027D1*
X5793Y30133D1*
Y30246D1*
X5832Y30353D1*
X5904Y30440D1*
X6002Y30496D1*
X6114Y30516D1*
X6766D1*
X6877Y30496D1*
X6975Y30440D1*
X7048Y30353D1*
X7087Y30247D1*
Y30134D1*
X7048Y30027D1*
X6976Y29940D1*
X6878Y29884D1*
X6766Y29864D1*
X6114D1*
G37*
M02*
